<?xml version="1.0" encoding="UTF-8" standalone="no"?>
<svg
   sodipodi:docname="AMB82-MINI btm 2022-10-06.svg"
   inkscape:version="1.1.2 (b8e25be833, 2022-02-05)"
   id="svg8"
   version="1.1"
   viewBox="0 0 38.294053 60.068828"
   height="60.068829mm"
   width="38.294052mm"
   xml:space="preserve"
   inkscape:export-filename="AMB82-MINI 2022-10-04.png"
   inkscape:export-xdpi="500"
   inkscape:export-ydpi="500"
   xmlns:inkscape="http://www.inkscape.org/namespaces/inkscape"
   xmlns:sodipodi="http://sodipodi.sourceforge.net/DTD/sodipodi-0.dtd"
   xmlns="http://www.w3.org/2000/svg"
   xmlns:svg="http://www.w3.org/2000/svg"
   xmlns:rdf="http://www.w3.org/1999/02/22-rdf-syntax-ns#"
   xmlns:cc="http://creativecommons.org/ns#"
   xmlns:dc="http://purl.org/dc/elements/1.1/"><defs
     id="defs2"><rect
       x="181.16667"
       y="150.3755"
       width="21.720905"
       height="13.128019"
       id="rect19389" /></defs><sodipodi:namedview
     id="base"
     pagecolor="#ffffff"
     bordercolor="#666666"
     borderopacity="1.0"
     inkscape:pageopacity="0.0"
     inkscape:pageshadow="2"
     inkscape:zoom="2"
     inkscape:cx="75.75"
     inkscape:cy="70.75"
     inkscape:document-units="mm"
     inkscape:current-layer="layer1"
     inkscape:document-rotation="0"
     showgrid="false"
     fit-margin-top="0"
     fit-margin-left="0"
     fit-margin-right="0"
     fit-margin-bottom="0"
     inkscape:window-width="1920"
     inkscape:window-height="1001"
     inkscape:window-x="-9"
     inkscape:window-y="-9"
     inkscape:window-maximized="1"
     inkscape:pagecheckerboard="0"
     inkscape:showpageshadow="2"
     inkscape:deskcolor="#d1d1d1"
     showguides="true"
     lock-margins="false" /><metadata
     id="metadata5"><rdf:RDF><cc:Work
         rdf:about=""><dc:format>image/svg+xml</dc:format><dc:type
           rdf:resource="http://purl.org/dc/dcmitype/StillImage" /></cc:Work></rdf:RDF></metadata><g
     inkscape:label="Layer 1"
     inkscape:groupmode="layer"
     id="layer1"
     transform="translate(-19.010047,-98.369133)"><g
       aria-label="RESET"
       id="text42211-8-74-0"
       style="font-style:normal;font-variant:normal;font-weight:normal;font-stretch:normal;font-size:0.881944px;line-height:1.25;font-family:'OCR A Extended';-inkscape-font-specification:'OCR A Extended, Normal';font-variant-ligatures:normal;font-variant-caps:normal;font-variant-numeric:normal;font-variant-east-asian:normal;fill:#ffffff;fill-opacity:1;stroke-width:0.264583" /><g
       aria-label="AMB82-MINI"
       transform="matrix(0.83674187,0,0,1.1951117,-21.979106,-3.1383713)"
       id="text20142"
       style="font-size:2.5px;font-family:'OCR A Extended';-inkscape-font-specification:'OCR A Extended, Normal';fill:#ffffff;stroke-width:0.589455;stroke-linecap:round" /><g
       id="g1949"
       inkscape:export-filename="C:\Workspace\GitHub\ambpro2_arduino\Ameba_misc\Fritzing and Pinmux\AMB82 MINI (RTL8735B)\graphics\AMB82-MINI btm 2022-10-06.png"
       inkscape:export-xdpi="96"
       inkscape:export-ydpi="96"><g
         id="PB3"
         transform="matrix(1,0,0,-1,16.475213,166.55004)"
         style="display:inline"><rect
           id="rect10639-5-0"
           height="4.4000001"
           width="2.7"
           y="8.8123217"
           x="3.7848341"
           style="fill:#c9caca;stroke-width:0.4299" /><rect
           style="stroke-width:0.380383"
           id="rect10641-6-4"
           height="1.86"
           width="1.25"
           y="10.082322"
           x="2.5348341" /></g><g
         id="PB3-9"
         transform="rotate(180,29.919467,83.274823)"
         style="display:inline"><rect
           id="rect10639-5-0-0"
           height="4.4000001"
           width="2.7"
           y="8.8123217"
           x="3.7848341"
           style="fill:#c9caca;stroke-width:0.4299" /><rect
           style="stroke-width:0.380383"
           id="rect10641-6-4-9"
           height="1.86"
           width="1.25"
           y="10.082322"
           x="2.5348341" /></g><path
         style="fill:#000000;fill-opacity:1;stroke-width:0.0668173"
         d="M 19.494501,128.40354 V 98.369133 H 38.13655 56.778602 v 30.034407 30.03442 H 38.13655 19.494501 Z"
         id="pcb"
         inkscape:label="#pcb" /><g
         id="g1694"><g
           id="g65018"><g
             aria-label="9 "
             transform="scale(0.98918612,1.0109321)"
             id="text1480-6-9-77-0-8-8-2-6-2"
             style="font-size:1.3px;line-height:1.25;font-family:'OCR A Extended';-inkscape-font-specification:'OCR A Extended, Normal';fill:#ffffff;stroke-width:0.695957"><path
               d="m 54.77196,99.428537 h -0.05332 q -0.02158,0 -0.03745,-0.01523 -0.01587,-0.01587 -0.01587,-0.03809 0,-0.02222 0.01523,-0.03745 0.01587,-0.01587 0.03809,-0.01587 v -0.352295 h -0.375781 q -0.02158,0 -0.03745,-0.01587 -0.01587,-0.01587 -0.01587,-0.03745 v -0.276758 q 0,-0.02158 0.01587,-0.03745 0.01587,-0.01587 0.03745,-0.01587 h 0.429102 q 0.02158,0 0.03745,0.01587 0.01587,0.01587 0.01587,0.03745 v 0.735694 q 0,0.02222 -0.01587,0.03809 -0.01523,0.01523 -0.03745,0.01523 z m -0.05205,-0.566846 v -0.167578 h -0.323731 v 0.167578 z"
               id="path64881" /></g><g
             aria-label="10 "
             transform="scale(0.98918612,1.0109321)"
             id="text1480-6-9-77-0-8-8-2-6-2-2"
             style="font-size:1.3px;line-height:1.25;font-family:'OCR A Extended';-inkscape-font-specification:'OCR A Extended, Normal';fill:#ffffff;stroke-width:0.695957"><path
               d="m 53.555115,101.83506 h 0.163769 v -0.62905 h -0.16123 q -0.02222,0 -0.03809,-0.0152 -0.01523,-0.0159 -0.01523,-0.0381 0,-0.0222 0.01523,-0.0375 0.01587,-0.0159 0.03809,-0.0159 h 0.267871 v 0.73569 h 0.106641 v -0.22217 q 0,-0.0216 0.01523,-0.0374 0.01587,-0.0159 0.03809,-0.0159 0.02222,0 0.03745,0.0159 0.01587,0.0152 0.01587,0.0374 v 0.27549 q 0,0.0222 -0.01587,0.0381 -0.01523,0.0152 -0.03745,0.0152 h -0.430371 q -0.02222,0 -0.03809,-0.0159 -0.01524,-0.0165 -0.01524,-0.0387 0,-0.0216 0.01524,-0.0368 0.01587,-0.0152 0.03809,-0.0152 z"
               id="path64884" /><path
               d="m 54.288269,101.83887 v -0.63794 q 0,-0.0419 0.03047,-0.0724 0.03047,-0.0305 0.07236,-0.0305 h 0.332617 q 0.04126,0 0.07109,0.0305 0.03047,0.0305 0.03047,0.0724 v 0.63794 q 0,0.0425 -0.03047,0.073 -0.02983,0.0298 -0.07236,0.0298 h -0.331348 q -0.04316,0 -0.073,-0.0298 -0.02983,-0.0305 -0.02983,-0.073 z m 0.431641,-0.004 v -0.62905 h -0.325 v 0.62905 z"
               id="path64886" /></g><g
             aria-label="11 "
             transform="scale(0.98918612,1.0109321)"
             id="text1480-6-9-77-0-8-8-2-6-2-2-5"
             style="font-size:1.3px;line-height:1.25;font-family:'OCR A Extended';-inkscape-font-specification:'OCR A Extended, Normal';fill:#ffffff;stroke-width:0.695957"><path
               d="m 53.556385,104.34695 h 0.16377 v -0.62906 h -0.161231 q -0.02222,0 -0.03809,-0.0152 -0.01523,-0.0159 -0.01523,-0.0381 0,-0.0222 0.01523,-0.0374 0.01587,-0.0159 0.03809,-0.0159 h 0.267871 v 0.7357 h 0.106641 v -0.22217 q 0,-0.0216 0.01523,-0.0375 0.01587,-0.0159 0.03809,-0.0159 0.02222,0 0.03745,0.0159 0.01587,0.0152 0.01587,0.0375 v 0.27549 q 0,0.0222 -0.01587,0.0381 -0.01523,0.0152 -0.03745,0.0152 h -0.430371 q -0.02222,0 -0.03809,-0.0159 -0.01523,-0.0165 -0.01523,-0.0387 0,-0.0216 0.01523,-0.0368 0.01587,-0.0152 0.03809,-0.0152 z"
               id="path64889" /><path
               d="m 54.34159,104.34695 h 0.16377 v -0.62906 h -0.161231 q -0.02222,0 -0.03809,-0.0152 -0.01523,-0.0159 -0.01523,-0.0381 0,-0.0222 0.01523,-0.0374 0.01587,-0.0159 0.03809,-0.0159 H 54.612 v 0.7357 h 0.106641 v -0.22217 q 0,-0.0216 0.01523,-0.0375 0.01587,-0.0159 0.03809,-0.0159 0.02222,0 0.03745,0.0159 0.01587,0.0152 0.01587,0.0375 v 0.27549 q 0,0.0222 -0.01587,0.0381 -0.01523,0.0152 -0.03745,0.0152 H 54.34159 q -0.02222,0 -0.03809,-0.0159 -0.01523,-0.0165 -0.01523,-0.0387 0,-0.0216 0.01523,-0.0368 0.01587,-0.0152 0.03809,-0.0152 z"
               id="path64891" /></g><g
             aria-label="12 "
             transform="scale(0.98918612,1.0109321)"
             id="text1480-6-9-77-0-8-8-2-6-2-2-5-0"
             style="font-size:1.3px;line-height:1.25;font-family:'OCR A Extended';-inkscape-font-specification:'OCR A Extended, Normal';fill:#ffffff;stroke-width:0.695957"><path
               d="m 53.552574,106.8595 h 0.16377 v -0.62906 h -0.161231 q -0.02222,0 -0.03809,-0.0152 -0.01523,-0.0159 -0.01523,-0.0381 0,-0.0222 0.01523,-0.0375 0.01587,-0.0159 0.03809,-0.0159 h 0.267871 v 0.7357 h 0.106641 v -0.22217 q 0,-0.0216 0.01523,-0.0375 0.01587,-0.0159 0.03809,-0.0159 0.02222,0 0.03745,0.0159 0.01587,0.0152 0.01587,0.0375 v 0.27549 q 0,0.0222 -0.01587,0.0381 -0.01523,0.0152 -0.03745,0.0152 h -0.430371 q -0.02222,0 -0.03809,-0.0159 -0.01523,-0.0165 -0.01523,-0.0387 0,-0.0216 0.01523,-0.0368 0.01587,-0.0152 0.03809,-0.0152 z"
               id="path64894" /><path
               d="m 54.771959,106.96614 h -0.484961 v -0.36817 q 0,-0.0444 0.0311,-0.0762 0.03174,-0.0317 0.07554,-0.0317 h 0.32373 v -0.25962 H 54.33651 q -0.02285,0 -0.03809,-0.0152 -0.01523,-0.0159 -0.01523,-0.0381 0,-0.0222 0.01523,-0.0375 0.01523,-0.0159 0.03809,-0.0159 h 0.380859 q 0.04443,0 0.07617,0.0317 0.03174,0.0311 0.03174,0.0749 v 0.25962 q 0,0.0451 -0.03174,0.0768 -0.03174,0.0311 -0.07617,0.0311 h -0.32373 v 0.26153 h 0.37832 q 0.02158,0 0.03745,0.0159 0.01587,0.0152 0.01587,0.0374 0,0.0222 -0.01587,0.0381 -0.01587,0.0152 -0.03745,0.0152 z"
               id="path64896" /></g><g
             aria-label="13 "
             transform="scale(0.98918612,1.0109321)"
             id="text1480-6-9-77-0-8-8-2-6-2-2-5-0-9"
             style="font-size:1.3px;line-height:1.25;font-family:'OCR A Extended';-inkscape-font-specification:'OCR A Extended, Normal';fill:#ffffff;stroke-width:0.695957"><path
               d="m 53.551304,109.37205 h 0.163769 v -0.62906 h -0.16123 q -0.02222,0 -0.03809,-0.0152 -0.01523,-0.0159 -0.01523,-0.0381 0,-0.0222 0.01523,-0.0375 0.01587,-0.0159 0.03809,-0.0159 h 0.267871 v 0.7357 h 0.106641 v -0.22217 q 0,-0.0216 0.01523,-0.0374 0.01587,-0.0159 0.03809,-0.0159 0.02222,0 0.03745,0.0159 0.01587,0.0152 0.01587,0.0374 v 0.27549 q 0,0.0222 -0.01587,0.0381 -0.01523,0.0152 -0.03745,0.0152 h -0.430371 q -0.02222,0 -0.03809,-0.0159 -0.01523,-0.0165 -0.01523,-0.0387 0,-0.0216 0.01523,-0.0368 0.01587,-0.0152 0.03809,-0.0152 z"
               id="path64899" /><path
               d="m 54.824009,108.74299 v 0.19996 q 0,0.0698 -0.04316,0.11298 0.04443,0.0495 0.04443,0.10791 v 0.20821 q 0,0.0438 -0.03174,0.0755 -0.03174,0.0311 -0.07617,0.0311 h -0.37705 q -0.02222,0 -0.03809,-0.0152 -0.01523,-0.0159 -0.01523,-0.0381 0,-0.0222 0.01523,-0.0375 0.01587,-0.0159 0.03809,-0.0159 H 54.7161 v -0.20821 q 0,-0.0222 -0.01587,-0.0381 -0.01523,-0.0165 -0.03745,-0.0165 h -0.21455 q -0.02222,0 -0.03809,-0.0152 -0.01523,-0.0152 -0.01523,-0.0381 0,-0.0222 0.01523,-0.0375 0.01587,-0.0159 0.03809,-0.0159 h 0.21582 q 0.02158,0 0.03745,-0.0152 0.01587,-0.0159 0.01587,-0.0381 v -0.2063 h -0.380859 q -0.02222,0 -0.03809,-0.0152 -0.01523,-0.0159 -0.01523,-0.0381 0,-0.0222 0.01523,-0.0375 0.01587,-0.0159 0.03809,-0.0159 h 0.380859 q 0.04443,0 0.07554,0.0317 0.0311,0.0311 0.0311,0.0749 z"
               id="path64901" /></g><g
             aria-label="14 "
             transform="scale(0.98918612,1.0109321)"
             id="text1480-6-9-77-0-8-8-2-6-2-2-5-0-9-1"
             style="font-size:1.3px;line-height:1.25;font-family:'OCR A Extended';-inkscape-font-specification:'OCR A Extended, Normal';fill:#ffffff;stroke-width:0.695957"><path
               d="m 53.581139,111.88519 h 0.163769 v -0.62905 h -0.16123 q -0.02222,0 -0.03809,-0.0152 -0.01523,-0.0159 -0.01523,-0.0381 0,-0.0222 0.01523,-0.0375 0.01587,-0.0159 0.03809,-0.0159 h 0.267871 v 0.73569 h 0.10664 v -0.22217 q 0,-0.0216 0.01524,-0.0375 0.01587,-0.0159 0.03809,-0.0159 0.02222,0 0.03745,0.0159 0.01587,0.0152 0.01587,0.0375 v 0.27549 q 0,0.0222 -0.01587,0.0381 -0.01523,0.0152 -0.03745,0.0152 h -0.430371 q -0.02222,0 -0.03809,-0.0159 -0.01523,-0.0165 -0.01523,-0.0387 0,-0.0216 0.01523,-0.0368 0.01587,-0.0152 0.03809,-0.0152 z"
               id="path64904" /><path
               d="m 54.665318,111.93851 v -0.22216 h -0.321191 v -0.51353 q 0,-0.0222 0.01587,-0.0381 0.0165,-0.0165 0.03872,-0.0165 0.02158,0 0.03745,0.0165 0.01587,0.0159 0.01587,0.0381 v 0.40562 h 0.213281 v -0.31231 q 0,-0.0222 0.01524,-0.0381 0.01587,-0.0165 0.03809,-0.0165 0.02222,0 0.03745,0.0165 0.01587,0.0159 0.01587,0.0381 v 0.31231 q 0.02222,0 0.03745,0.0159 0.01587,0.0152 0.01587,0.0375 0,0.0222 -0.01587,0.0381 -0.01523,0.0152 -0.03745,0.0152 v 0.22343 q 0,0.0222 -0.01587,0.0381 -0.01587,0.0152 -0.03745,0.0152 -0.02222,0 -0.03809,-0.0152 -0.01524,-0.0159 -0.01524,-0.0381 z"
               id="path64906" /></g><g
             aria-label="15 "
             transform="scale(0.98918612,1.0109321)"
             id="text1480-6-9-77-0-8-8-2-6-2-2-5-0-9-1-6"
             style="font-size:1.3px;line-height:1.25;font-family:'OCR A Extended';-inkscape-font-specification:'OCR A Extended, Normal';fill:#ffffff;stroke-width:0.695957"><path
               d="m 53.541149,114.39709 h 0.16377 v -0.62905 h -0.161231 q -0.02222,0 -0.03809,-0.0152 -0.01523,-0.0159 -0.01523,-0.0381 0,-0.0222 0.01523,-0.0375 0.01587,-0.0159 0.03809,-0.0159 h 0.267871 v 0.73569 H 53.9182 v -0.22216 q 0,-0.0216 0.01523,-0.0375 0.01587,-0.0159 0.03809,-0.0159 0.02222,0 0.03745,0.0159 0.01587,0.0152 0.01587,0.0375 v 0.27549 q 0,0.0222 -0.01587,0.0381 -0.01523,0.0152 -0.03745,0.0152 h -0.430371 q -0.02222,0 -0.03809,-0.0159 -0.01523,-0.0165 -0.01523,-0.0387 0,-0.0216 0.01523,-0.0368 0.01587,-0.0152 0.03809,-0.0152 z"
               id="path64909" /><path
               d="m 54.471716,114.39709 h 0.246923 v -0.26152 h -0.322461 v -0.47417 h 0.375782 q 0.02158,0 0.03745,0.0159 0.01587,0.0159 0.01587,0.0375 0,0.0222 -0.01587,0.0381 -0.01523,0.0152 -0.03745,0.0152 h -0.267871 v 0.26089 h 0.21455 q 0.04316,0 0.0749,0.0317 0.03174,0.0317 0.03174,0.0749 v 0.26152 q 0,0.0438 -0.03174,0.0755 -0.0311,0.0311 -0.0749,0.0311 h -0.246923 q -0.03301,0 -0.07046,-0.0159 l -0.08062,-0.0336 q -0.03237,-0.0133 -0.03237,-0.0508 0,-0.0222 0.0146,-0.0375 0.0146,-0.0159 0.03555,-0.0159 0.01587,0 0.03682,0.01 l 0.07046,0.0298 q 0.0127,0.008 0.02603,0.008 z"
               id="path64911" /></g><g
             aria-label="16 "
             transform="scale(0.98918612,1.0109321)"
             id="text1480-6-9-77-0-8-8-2-6-2-2-5-0-9-1-6-6"
             style="font-size:1.3px;line-height:1.25;font-family:'OCR A Extended';-inkscape-font-specification:'OCR A Extended, Normal';fill:#ffffff;stroke-width:0.695957"><path
               d="m 53.552574,116.90964 h 0.16377 v -0.62906 h -0.161231 q -0.02222,0 -0.03809,-0.0152 -0.01523,-0.0159 -0.01523,-0.0381 0,-0.0222 0.01523,-0.0375 0.01587,-0.0159 0.03809,-0.0159 h 0.267871 v 0.7357 h 0.106641 v -0.22217 q 0,-0.0216 0.01523,-0.0375 0.01587,-0.0159 0.03809,-0.0159 0.02222,0 0.03745,0.0159 0.01587,0.0152 0.01587,0.0375 v 0.27549 q 0,0.0222 -0.01587,0.0381 -0.01523,0.0152 -0.03745,0.0152 h -0.430371 q -0.02222,0 -0.03809,-0.0159 -0.01523,-0.0165 -0.01523,-0.0387 0,-0.0216 0.01523,-0.0368 0.01587,-0.0152 0.03809,-0.0152 z"
               id="path64914" /><path
               d="m 54.342857,116.17394 h 0.05332 q 0.02222,0 0.03745,0.0159 0.01587,0.0159 0.01587,0.0375 0,0.0222 -0.01587,0.0381 -0.01524,0.0152 -0.03745,0.0152 v 0.3523 h 0.375781 q 0.02158,0 0.03745,0.0165 0.01587,0.0159 0.01587,0.0381 v 0.27549 q 0,0.0222 -0.0165,0.0381 -0.01587,0.0152 -0.03809,0.0152 h -0.427832 q -0.02222,0 -0.03872,-0.0159 -0.01587,-0.0159 -0.01587,-0.0375 v -0.7357 q 0,-0.0222 0.01587,-0.0375 0.01587,-0.0159 0.03872,-0.0159 z m 0.05205,0.56685 v 0.16885 h 0.322461 v -0.16885 z"
               id="path64916" /></g><g
             aria-label="17 "
             transform="scale(0.98918612,1.0109321)"
             id="text1480-6-9-77-0-8-8-2-6-2-2-5-0-9-1-6-6-3"
             style="font-size:1.3px;line-height:1.25;font-family:'OCR A Extended';-inkscape-font-specification:'OCR A Extended, Normal';fill:#ffffff;stroke-width:0.695957"><path
               d="m 53.555115,119.42216 h 0.163769 v -0.62906 h -0.16123 q -0.02222,0 -0.03809,-0.0152 -0.01523,-0.0159 -0.01523,-0.0381 0,-0.0222 0.01523,-0.0374 0.01587,-0.0159 0.03809,-0.0159 h 0.267871 v 0.7357 h 0.106641 v -0.22217 q 0,-0.0216 0.01523,-0.0374 0.01587,-0.0159 0.03809,-0.0159 0.02222,0 0.03745,0.0159 0.01587,0.0152 0.01587,0.0374 v 0.27549 q 0,0.0222 -0.01587,0.0381 -0.01523,0.0152 -0.03745,0.0152 h -0.430371 q -0.02222,0 -0.03809,-0.0159 -0.01524,-0.0165 -0.01524,-0.0387 0,-0.0216 0.01524,-0.0368 0.01587,-0.0152 0.03809,-0.0152 z"
               id="path64919" /><path
               d="m 54.288269,118.78676 v -0.0457 q 0,-0.0222 0.01523,-0.0375 0.01587,-0.0159 0.03809,-0.0159 h 0.483692 v 0.32754 q 0,0.026 -0.01968,0.0432 l -0.196143,0.16757 v 0.2482 q 0,0.0222 -0.01587,0.0387 -0.01523,0.0159 -0.03745,0.0159 -0.02222,0 -0.03872,-0.0159 -0.01587,-0.0159 -0.01587,-0.0374 v -0.26914 q 0,-0.0305 0.01904,-0.047 l 0.196778,-0.1663 v -0.19869 H 54.39491 q -0.01143,0.0457 -0.05332,0.0457 -0.02222,0 -0.03809,-0.0152 -0.01523,-0.0159 -0.01523,-0.0381 z"
               id="path64921" /></g><g
             aria-label="18 "
             transform="scale(0.98918612,1.0109321)"
             id="text1480-6-9-77-0-8-8-2-6-2-2-5-0-9-1-6-6-0"
             style="font-size:1.3px;line-height:1.25;font-family:'OCR A Extended';-inkscape-font-specification:'OCR A Extended, Normal';fill:#ffffff;stroke-width:0.695957"><path
               d="m 53.555115,121.93468 h 0.163769 v -0.62906 h -0.16123 q -0.02222,0 -0.03809,-0.0152 -0.01523,-0.0159 -0.01523,-0.0381 0,-0.0222 0.01523,-0.0375 0.01587,-0.0159 0.03809,-0.0159 h 0.267871 v 0.7357 h 0.106641 v -0.22217 q 0,-0.0216 0.01523,-0.0374 0.01587,-0.0159 0.03809,-0.0159 0.02222,0 0.03745,0.0159 0.01587,0.0152 0.01587,0.0374 v 0.27549 q 0,0.0222 -0.01587,0.0381 -0.01523,0.0152 -0.03745,0.0152 h -0.430371 q -0.02222,0 -0.03809,-0.0159 -0.01524,-0.0165 -0.01524,-0.0387 0,-0.0216 0.01524,-0.0368 0.01587,-0.0152 0.03809,-0.0152 z"
               id="path64924" /><path
               d="m 54.286999,121.93341 v -0.26026 q 0,-0.0438 0.03174,-0.0749 0.03174,-0.0317 0.07617,-0.0317 v -0.31421 q 0,-0.0222 0.01523,-0.0375 0.01523,-0.0159 0.03809,-0.0159 h 0.21709 q 0.02222,0 0.03745,0.0159 0.01587,0.0152 0.01587,0.0375 v 0.31421 q 0.04316,0 0.0749,0.0311 0.03174,0.0305 0.03174,0.0755 v 0.26153 q 0,0.0438 -0.03174,0.0755 -0.03174,0.0311 -0.0749,0.0311 h -0.32373 q -0.04507,0 -0.07681,-0.033 -0.0311,-0.033 -0.0311,-0.0749 z m 0.214551,-0.62779 v 0.26089 h 0.110449 v -0.26089 z m -0.10664,0.36753 v 0.26153 h 0.32373 v -0.26153 z"
               id="path64926" /></g><g
             aria-label="19 "
             transform="scale(0.98918612,1.0109321)"
             id="text1480-6-9-77-0-8-8-2-6-2-2-5-0-9-1-6-6-1"
             style="font-size:1.3px;line-height:1.25;font-family:'OCR A Extended';-inkscape-font-specification:'OCR A Extended, Normal';fill:#ffffff;stroke-width:0.695957"><path
               d="m 53.552574,124.44787 h 0.16377 v -0.62905 h -0.161231 q -0.02222,0 -0.03809,-0.0152 -0.01523,-0.0159 -0.01523,-0.0381 0,-0.0222 0.01523,-0.0375 0.01587,-0.0159 0.03809,-0.0159 h 0.267871 v 0.73569 h 0.106641 v -0.22217 q 0,-0.0216 0.01523,-0.0375 0.01587,-0.0159 0.03809,-0.0159 0.02222,0 0.03745,0.0159 0.01587,0.0152 0.01587,0.0375 v 0.27549 q 0,0.0222 -0.01587,0.0381 -0.01523,0.0152 -0.03745,0.0152 h -0.430371 q -0.02222,0 -0.03809,-0.0159 -0.01523,-0.0165 -0.01523,-0.0387 0,-0.0216 0.01523,-0.0368 0.01587,-0.0152 0.03809,-0.0152 z"
               id="path64929" /><path
               d="m 54.771959,124.55324 h -0.05332 q -0.02158,0 -0.03745,-0.0152 -0.01587,-0.0159 -0.01587,-0.0381 0,-0.0222 0.01524,-0.0375 0.01587,-0.0159 0.03809,-0.0159 v -0.3523 h -0.375782 q -0.02158,0 -0.03745,-0.0159 -0.01587,-0.0159 -0.01587,-0.0374 v -0.27675 q 0,-0.0216 0.01587,-0.0375 0.01587,-0.0159 0.03745,-0.0159 h 0.429102 q 0.02158,0 0.03745,0.0159 0.01587,0.0159 0.01587,0.0375 v 0.73569 q 0,0.0222 -0.01587,0.0381 -0.01523,0.0152 -0.03745,0.0152 z m -0.05205,-0.56685 v -0.16757 h -0.32373 v 0.16757 z"
               id="path64931" /></g><g
             aria-label="20 "
             transform="scale(0.98918612,1.0109321)"
             id="text1480-6-9-77-0-8-8-2-6-2-2-5-0-9-1-6-6-1-4"
             style="font-size:1.3px;line-height:1.25;font-family:'OCR A Extended';-inkscape-font-specification:'OCR A Extended, Normal';fill:#ffffff;stroke-width:0.695957"><path
               d="m 53.989294,127.06703 h -0.484961 v -0.36817 q 0,-0.0444 0.0311,-0.0762 0.03174,-0.0317 0.07554,-0.0317 h 0.323731 v -0.25961 h -0.38086 q -0.02285,0 -0.03809,-0.0152 -0.01523,-0.0159 -0.01523,-0.0381 0,-0.0222 0.01523,-0.0375 0.01523,-0.0159 0.03809,-0.0159 h 0.38086 q 0.04443,0 0.07617,0.0317 0.03174,0.0311 0.03174,0.0749 v 0.25961 q 0,0.0451 -0.03174,0.0768 -0.03174,0.0311 -0.07617,0.0311 h -0.323731 v 0.26153 h 0.37832 q 0.02158,0 0.03745,0.0159 0.01587,0.0152 0.01587,0.0375 0,0.0222 -0.01587,0.0381 -0.01587,0.0152 -0.03745,0.0152 z"
               id="path64934" /><path
               d="m 54.288269,126.9642 v -0.63794 q 0,-0.0419 0.03047,-0.0724 0.03047,-0.0305 0.07236,-0.0305 h 0.332617 q 0.04126,0 0.07109,0.0305 0.03047,0.0305 0.03047,0.0724 v 0.63794 q 0,0.0425 -0.03047,0.073 -0.02983,0.0298 -0.07236,0.0298 h -0.331348 q -0.04316,0 -0.073,-0.0298 -0.02983,-0.0305 -0.02983,-0.073 z m 0.431641,-0.004 v -0.62905 h -0.325 v 0.62905 z"
               id="path64936" /></g><g
             aria-label="21 "
             transform="scale(0.98918612,1.0109321)"
             id="text1480-6-9-77-0-8-8-2-6-2-2-5-0-9-1-6-6-1-4-9"
             style="font-size:1.3px;line-height:1.25;font-family:'OCR A Extended';-inkscape-font-specification:'OCR A Extended, Normal';fill:#ffffff;stroke-width:0.695957"><path
               d="m 53.990565,129.57893 h -0.484961 v -0.36816 q 0,-0.0444 0.0311,-0.0762 0.03174,-0.0317 0.07554,-0.0317 h 0.323731 v -0.25962 h -0.380859 q -0.02285,0 -0.03809,-0.0152 -0.01523,-0.0159 -0.01523,-0.0381 0,-0.0222 0.01523,-0.0375 0.01523,-0.0159 0.03809,-0.0159 h 0.380859 q 0.04443,0 0.07617,0.0317 0.03174,0.0311 0.03174,0.0749 v 0.25962 q 0,0.0451 -0.03174,0.0768 -0.03174,0.0311 -0.07617,0.0311 h -0.323731 v 0.26152 h 0.378321 q 0.02158,0 0.03745,0.0159 0.01587,0.0152 0.01587,0.0375 0,0.0222 -0.01587,0.0381 -0.01587,0.0152 -0.03745,0.0152 z"
               id="path64939" /><path
               d="m 54.34159,129.47229 h 0.16377 v -0.62905 h -0.161231 q -0.02222,0 -0.03809,-0.0152 -0.01523,-0.0159 -0.01523,-0.0381 0,-0.0222 0.01523,-0.0375 0.01587,-0.0159 0.03809,-0.0159 H 54.612 v 0.73569 h 0.106641 v -0.22217 q 0,-0.0216 0.01523,-0.0375 0.01587,-0.0159 0.03809,-0.0159 0.02222,0 0.03745,0.0159 0.01587,0.0152 0.01587,0.0375 v 0.27549 q 0,0.0222 -0.01587,0.0381 -0.01523,0.0152 -0.03745,0.0152 H 54.34159 q -0.02222,0 -0.03809,-0.0159 -0.01523,-0.0165 -0.01523,-0.0387 0,-0.0216 0.01523,-0.0368 0.01587,-0.0152 0.03809,-0.0152 z"
               id="path64941" /></g><g
             aria-label="22 "
             transform="scale(0.98918612,1.0109321)"
             id="text1480-6-9-77-0-8-8-2-6-2-2-5-0-9-1-6-6-1-4-9-0"
             style="font-size:1.3px;line-height:1.25;font-family:'OCR A Extended';-inkscape-font-specification:'OCR A Extended, Normal';fill:#ffffff;stroke-width:0.695957"><path
               d="m 53.986754,132.09146 h -0.484961 v -0.36817 q 0,-0.0444 0.0311,-0.0762 0.03174,-0.0317 0.07554,-0.0317 h 0.32373 v -0.25962 h -0.380859 q -0.02285,0 -0.03809,-0.0152 -0.01523,-0.0159 -0.01523,-0.0381 0,-0.0222 0.01523,-0.0374 0.01523,-0.0159 0.03809,-0.0159 h 0.380859 q 0.04443,0 0.07617,0.0317 0.03174,0.0311 0.03174,0.0749 v 0.25962 q 0,0.0451 -0.03174,0.0768 -0.03174,0.0311 -0.07617,0.0311 h -0.32373 v 0.26153 h 0.37832 q 0.02158,0 0.03745,0.0159 0.01587,0.0152 0.01587,0.0375 0,0.0222 -0.01587,0.0381 -0.01587,0.0152 -0.03745,0.0152 z"
               id="path64944" /><path
               d="m 54.771959,132.09146 h -0.484961 v -0.36817 q 0,-0.0444 0.0311,-0.0762 0.03174,-0.0317 0.07554,-0.0317 h 0.32373 v -0.25962 H 54.33651 q -0.02285,0 -0.03809,-0.0152 -0.01523,-0.0159 -0.01523,-0.0381 0,-0.0222 0.01523,-0.0374 0.01523,-0.0159 0.03809,-0.0159 h 0.380859 q 0.04443,0 0.07617,0.0317 0.03174,0.0311 0.03174,0.0749 v 0.25962 q 0,0.0451 -0.03174,0.0768 -0.03174,0.0311 -0.07617,0.0311 h -0.32373 v 0.26153 h 0.37832 q 0.02158,0 0.03745,0.0159 0.01587,0.0152 0.01587,0.0375 0,0.0222 -0.01587,0.0381 -0.01587,0.0152 -0.03745,0.0152 z"
               id="path64946" /></g><g
             aria-label="GND "
             transform="scale(0.98918612,1.0109321)"
             id="text1480-6-9-77-0-8-8-2-6-2-2-5-0-9-1-6-6-1-4-9-0-2"
             style="font-size:1.3px;line-height:1.25;font-family:'OCR A Extended';-inkscape-font-specification:'OCR A Extended, Normal';fill:#ffffff;stroke-width:0.695957"><path
               d="m 53.028258,133.76101 h 0.177099 q 0.02222,0 0.03745,0.0159 0.01587,0.0152 0.01587,0.0375 0,0.0235 -0.01714,0.0394 -0.0165,0.0152 -0.03618,0.0152 H 53.03651 q -0.02476,0 -0.04316,0.0235 l -0.149805,0.19233 q -0.01904,0.0228 -0.01904,0.0635 v 0.29516 q 0,0.0229 0.01523,0.0387 0.01587,0.0159 0.03809,0.0159 h 0.21709 q 0.02158,0 0.03745,-0.0159 0.01587,-0.0159 0.01587,-0.0375 v -0.11552 h -0.110449 q -0.02285,0 -0.03809,-0.0152 -0.01523,-0.0159 -0.01523,-0.0381 0,-0.0222 0.01523,-0.0375 0.01523,-0.0159 0.03809,-0.0159 h 0.21709 v 0.22216 q 0,0.066 -0.04697,0.11299 -0.04697,0.047 -0.112988,0.047 h -0.21709 q -0.06665,0 -0.114258,-0.047 -0.04697,-0.047 -0.04697,-0.11299 v -0.29516 q 0,-0.0793 0.04253,-0.13394 l 0.157422,-0.19995 q 0.01714,-0.0228 0.04761,-0.0387 0.0311,-0.0159 0.06411,-0.0159 z"
               id="path64949" /><path
               d="m 54.041344,133.8156 v 0.78901 h -0.143457 l -0.286914,-0.65507 v 0.60175 q 0,0.0222 -0.01587,0.0381 -0.01523,0.0152 -0.03745,0.0152 -0.02222,0 -0.03809,-0.0152 -0.01523,-0.0159 -0.01523,-0.0381 v -0.79028 h 0.141553 l 0.287549,0.65381 v -0.59922 q 0,-0.0222 0.01587,-0.0381 0.0165,-0.0165 0.03872,-0.0165 0.02222,0 0.03745,0.0159 0.01587,0.0159 0.01587,0.0387 z"
               id="path64951" /><path
               d="m 54.341588,133.76101 h 0.210742 q 0.04126,6.4e-4 0.07998,0.0267 0.03936,0.026 0.05776,0.0628 l 0.105371,0.21328 q 0.02983,0.0578 0.02983,0.12061 0,0.0584 -0.03174,0.11997 l -0.106006,0.21074 q -0.02031,0.0406 -0.0584,0.0654 -0.03809,0.0241 -0.08506,0.0241 h -0.20376 q -0.02222,0 -0.03809,-0.0159 -0.01523,-0.0159 -0.01523,-0.0375 0,-0.0222 0.01523,-0.0381 0.01587,-0.0165 0.03809,-0.0165 h 0.05586 v -0.62778 h -0.05459 q -0.02222,0 -0.03809,-0.0159 -0.01524,-0.0165 -0.01524,-0.0387 0,-0.0216 0.01524,-0.0375 0.01587,-0.0159 0.03809,-0.0159 z m 0.16123,0.10791 v 0.62905 h 0.03745 q 0.03555,0 0.05332,-0.0349 l 0.105371,-0.20947 q 0.01968,-0.0413 0.01968,-0.0692 0,-0.0349 -0.01587,-0.066 l -0.109179,-0.21709 q -0.01714,-0.0324 -0.05586,-0.0324 z"
               id="path64953" /></g></g><g
           id="g64971"><circle
             id="connector60pin-62"
             connectorname="RESET"
             gorn="0.4.0.0.0.136"
             style="fill:#d7d9d2;fill-opacity:1;stroke:#9a916c;stroke-width:0.3374"
             r="0.61870062"
             cy="100.08973"
             cx="55.5075" /><circle
             id="connector60pin-2-4"
             connectorname="RESET"
             gorn="0.4.0.0.0.136"
             style="fill:#d7d9d2;fill-opacity:1;stroke:#9a916c;stroke-width:0.3374"
             r="0.61870062"
             cy="102.62972"
             cx="55.5075" /><circle
             id="connector60pin-1-6"
             connectorname="RESET"
             gorn="0.4.0.0.0.136"
             style="fill:#d7d9d2;fill-opacity:1;stroke:#9a916c;stroke-width:0.3374"
             r="0.61870062"
             cy="105.16972"
             cx="55.5075" /><circle
             id="connector60pin-7-6"
             connectorname="RESET"
             gorn="0.4.0.0.0.136"
             style="fill:#d7d9d2;fill-opacity:1;stroke:#9a916c;stroke-width:0.3374"
             r="0.61870062"
             cy="107.70973"
             cx="55.5075" /><circle
             id="connector60pin-9-0"
             connectorname="RESET"
             gorn="0.4.0.0.0.136"
             style="fill:#d7d9d2;fill-opacity:1;stroke:#9a916c;stroke-width:0.3374"
             r="0.61870062"
             cy="110.24975"
             cx="55.5075" /><circle
             id="connector60pin-78-9"
             connectorname="RESET"
             gorn="0.4.0.0.0.136"
             style="fill:#d7d9d2;fill-opacity:1;stroke:#9a916c;stroke-width:0.3374"
             r="0.61870062"
             cy="115.32973"
             cx="55.5075" /><circle
             id="connector60pin-21-4"
             connectorname="RESET"
             gorn="0.4.0.0.0.136"
             style="fill:#d7d9d2;fill-opacity:1;stroke:#9a916c;stroke-width:0.3374"
             r="0.61870062"
             cy="112.78973"
             cx="55.5075" /><circle
             id="connector60pin-12-7"
             connectorname="RESET"
             gorn="0.4.0.0.0.136"
             style="fill:#d7d9d2;fill-opacity:1;stroke:#9a916c;stroke-width:0.3374"
             r="0.61870062"
             cy="117.86974"
             cx="55.5075" /><circle
             id="connector60pin-95-4"
             connectorname="RESET"
             gorn="0.4.0.0.0.136"
             style="fill:#d7d9d2;fill-opacity:1;stroke:#9a916c;stroke-width:0.3374"
             r="0.61870062"
             cy="120.40973"
             cx="55.5075" /><circle
             id="connector60pin-6-5"
             connectorname="RESET"
             gorn="0.4.0.0.0.136"
             style="fill:#d7d9d2;fill-opacity:1;stroke:#9a916c;stroke-width:0.3374"
             r="0.61870062"
             cy="125.48974"
             cx="55.5075" /><circle
             id="connector60pin-18-1"
             connectorname="RESET"
             gorn="0.4.0.0.0.136"
             style="fill:#d7d9d2;fill-opacity:1;stroke:#9a916c;stroke-width:0.3374"
             r="0.61870062"
             cy="122.94972"
             cx="55.5075" /><circle
             id="connector60pin-76-2"
             connectorname="RESET"
             gorn="0.4.0.0.0.136"
             style="fill:#d7d9d2;fill-opacity:1;stroke:#9a916c;stroke-width:0.3374"
             r="0.61870062"
             cy="128.02972"
             cx="55.5075" /><circle
             id="connector60pin-5-0"
             connectorname="RESET"
             gorn="0.4.0.0.0.136"
             style="fill:#d7d9d2;fill-opacity:1;stroke:#9a916c;stroke-width:0.3374"
             r="0.61870062"
             cy="133.10973"
             cx="55.5075" /><circle
             id="connector60pin-5-0-0"
             connectorname="RESET"
             gorn="0.4.0.0.0.136"
             style="fill:#d7d9d2;fill-opacity:1;stroke:#9a916c;stroke-width:0.3374"
             r="0.61870062"
             cy="135.64972"
             cx="55.5075" /><circle
             id="connector60pin-14-3"
             connectorname="RESET"
             gorn="0.4.0.0.0.136"
             style="fill:#d7d9d2;fill-opacity:1;stroke:#9a916c;stroke-width:0.3374"
             r="0.61870062"
             cy="130.56973"
             cx="55.5075" /></g></g><g
         id="g50780"><rect
           style="fill:#00a63d;fill-opacity:1;stroke-width:0.298968"
           id="rect839"
           width="20"
           height="27"
           x="27.867144"
           y="101.36913" /><g
           transform="matrix(-0.60934411,2.3494373e-6,-1.5420839e-6,-0.92836444,47.01305,139.87471)"
           id="g1508"
           style="fill:#d7d9d2;fill-opacity:1;stroke-width:1.00063;stroke-miterlimit:4;stroke-dasharray:none"><rect
             y="13.464"
             width="31.181"
             height="26.929001"
             class="st12"
             x="-0.70899999"
             id="rect1506"
             style="fill:#d7d9d2;fill-opacity:1;stroke-width:1.00063;stroke-miterlimit:4;stroke-dasharray:none" /></g><g
           transform="matrix(-0.41415436,0,0,-0.47512102,39.236506,123.47236)"
           id="g10705"
           style="display:inline"><g
             id="g10673"
             transform="translate(-0.01497309,0.0021753)"><polyline
               style="fill:none;stroke:#ffffff;stroke-width:0.5;stroke-miterlimit:10"
               stroke-miterlimit="10"
               points="19.618,37.177 18.874,37.177        18.874,44.146 19.618,44.146      "
               id="polyline10667" /><polyline
               style="fill:none;stroke:#ffffff;stroke-width:0.5;stroke-miterlimit:10"
               stroke-miterlimit="10"
               points="25.819,39.705 25.815,37.177        25.258,37.177      "
               id="polyline10669" /><polyline
               style="fill:none;stroke:#ffffff;stroke-width:0.5;stroke-miterlimit:10"
               stroke-miterlimit="10"
               points="25.258,44.146 25.815,44.146        25.811,41.484      "
               id="polyline10671" /></g><rect
             style="fill:#c9c9c9"
             x="20.427999"
             y="37.118"
             width="4.5700002"
             height="7.086"
             id="rect10675" /><rect
             style="fill:#c9c9c9"
             x="19.016001"
             y="39.851002"
             width="6.9439998"
             height="1.516"
             id="rect10677" /><g
             id="g10703"><rect
               style="fill:#f7efd8"
               x="19.694"
               y="37.738998"
               width="5.7680001"
               height="2.3169999"
               id="rect10679" /><rect
               style="fill:#f7efd8"
               x="19.694"
               y="41.266998"
               width="5.7680001"
               height="2.3169999"
               id="rect10681" /><ellipse
               style="opacity:0.2;fill:#040000"
               enable-background="new    "
               cx="22.643999"
               cy="40.660999"
               rx="2.214"
               ry="2.158"
               id="ellipse10683" /><g
               id="g10693"><ellipse
                 style="fill:#dfc799"
                 cx="22.739"
                 cy="40.648998"
                 rx="1.9809999"
                 ry="1.9299999"
                 id="ellipse10685" /><g
                 style="opacity:0.05"
                 id="g10689"><path
                   style="fill:#040000"
                   inkscape:connector-curvature="0"
                   d="m 22.739,39.094 c 0.88,0 1.597,0.698 1.597,1.556 0,0.858 -0.716,1.556 -1.597,1.556 -0.881,0 -1.595,-0.698 -1.595,-1.556 0,-0.858 0.716,-1.556 1.595,-1.556 m 0,-0.376 c -1.095,0 -1.981,0.864 -1.981,1.932 0,1.067 0.886,1.931 1.981,1.931 1.095,0 1.981,-0.864 1.981,-1.931 0.002,-1.068 -0.886,-1.932 -1.981,-1.932 z"
                   id="path10687" /></g><ellipse
                 style="fill:none;stroke:#ffffff;stroke-width:0.4815;stroke-miterlimit:10"
                 stroke-miterlimit="10"
                 cx="22.739"
                 cy="40.648998"
                 rx="1.9809999"
                 ry="1.9299999"
                 id="ellipse10691" /></g><g
               id="g10699"><ellipse
                 style="fill:#f8da91"
                 cx="22.739"
                 cy="40.647999"
                 rx="0.53200001"
                 ry="0.51899999"
                 id="ellipse10695" /><path
                 style="fill:#bf9d4e"
                 inkscape:connector-curvature="0"
                 d="m 22.739,40.169 c 0.272,0 0.493,0.215 0.493,0.48 0,0.265 -0.221,0.479 -0.493,0.479 -0.272,0 -0.491,-0.214 -0.491,-0.479 0,-0.265 0.22,-0.48 0.491,-0.48 m 0,-0.077 c -0.316,0 -0.572,0.25 -0.572,0.558 0,0.308 0.256,0.557 0.572,0.557 0.316,0 0.572,-0.249 0.572,-0.557 0.001,-0.308 -0.256,-0.558 -0.572,-0.558 z"
                 id="path10697" /></g><ellipse
               style="fill:#ffffff"
               cx="22.774"
               cy="40.497002"
               rx="0.20200001"
               ry="0.197"
               id="ellipse10701" /></g></g></g><g
         id="g2193"
         transform="translate(-119.33976,36.133133)"><g
           id="g2172"
           transform="translate(0,-4.2995004)"><rect
             style="opacity:0.998;fill:#979895;fill-opacity:1;stroke:none;stroke-width:0.972449;stroke-miterlimit:4;stroke-dasharray:none;stroke-opacity:1;paint-order:markers fill stroke"
             id="rect2156"
             width="0.5"
             height="2.1110373"
             x="145.09862"
             y="111.6035" /><rect
             style="opacity:0.998;fill:#979895;fill-opacity:1;stroke:none;stroke-width:0.972449;stroke-miterlimit:4;stroke-dasharray:none;stroke-opacity:1;paint-order:markers fill stroke"
             id="rect2158"
             width="0.5"
             height="2.1110373"
             x="154.299"
             y="111.6035" /><rect
             style="opacity:0.998;fill:#979895;fill-opacity:1;stroke:none;stroke-width:0.972449;stroke-miterlimit:4;stroke-dasharray:none;stroke-opacity:1;paint-order:markers fill stroke"
             id="rect2160"
             width="0.5"
             height="2.1110373"
             x="146.41296"
             y="111.6035" /><rect
             style="opacity:0.998;fill:#979895;fill-opacity:1;stroke:none;stroke-width:0.972449;stroke-miterlimit:4;stroke-dasharray:none;stroke-opacity:1;paint-order:markers fill stroke"
             id="rect2162"
             width="0.5"
             height="2.1110373"
             x="147.72729"
             y="111.6035" /><rect
             style="opacity:0.998;fill:#979895;fill-opacity:1;stroke:none;stroke-width:0.972449;stroke-miterlimit:4;stroke-dasharray:none;stroke-opacity:1;paint-order:markers fill stroke"
             id="rect2164"
             width="0.5"
             height="2.1110373"
             x="149.04164"
             y="111.6035" /><rect
             style="opacity:0.998;fill:#979895;fill-opacity:1;stroke:none;stroke-width:0.972449;stroke-miterlimit:4;stroke-dasharray:none;stroke-opacity:1;paint-order:markers fill stroke"
             id="rect2166"
             width="0.5"
             height="2.1110373"
             x="150.35597"
             y="111.6035" /><rect
             style="opacity:0.998;fill:#979895;fill-opacity:1;stroke:none;stroke-width:0.972449;stroke-miterlimit:4;stroke-dasharray:none;stroke-opacity:1;paint-order:markers fill stroke"
             id="rect2168"
             width="0.5"
             height="2.1110373"
             x="151.6703"
             y="111.6035" /><rect
             style="opacity:0.998;fill:#979895;fill-opacity:1;stroke:none;stroke-width:0.972449;stroke-miterlimit:4;stroke-dasharray:none;stroke-opacity:1;paint-order:markers fill stroke"
             id="rect2170"
             width="0.5"
             height="2.1110373"
             x="152.98465"
             y="111.6035" /></g><g
           id="g2154"><rect
             style="opacity:0.998;fill:#979895;fill-opacity:1;stroke:none;stroke-width:0.972449;stroke-miterlimit:4;stroke-dasharray:none;stroke-opacity:1;paint-order:markers fill stroke"
             id="rect2130"
             width="0.5"
             height="2.1110373"
             x="145.09862"
             y="111.6035" /><rect
             style="opacity:0.998;fill:#979895;fill-opacity:1;stroke:none;stroke-width:0.972449;stroke-miterlimit:4;stroke-dasharray:none;stroke-opacity:1;paint-order:markers fill stroke"
             id="rect2132"
             width="0.5"
             height="2.1110373"
             x="154.299"
             y="111.6035" /><rect
             style="opacity:0.998;fill:#979895;fill-opacity:1;stroke:none;stroke-width:0.972449;stroke-miterlimit:4;stroke-dasharray:none;stroke-opacity:1;paint-order:markers fill stroke"
             id="rect2134"
             width="0.5"
             height="2.1110373"
             x="146.41296"
             y="111.6035" /><rect
             style="opacity:0.998;fill:#979895;fill-opacity:1;stroke:none;stroke-width:0.972449;stroke-miterlimit:4;stroke-dasharray:none;stroke-opacity:1;paint-order:markers fill stroke"
             id="rect2136"
             width="0.5"
             height="2.1110373"
             x="147.72729"
             y="111.6035" /><rect
             style="opacity:0.998;fill:#979895;fill-opacity:1;stroke:none;stroke-width:0.972449;stroke-miterlimit:4;stroke-dasharray:none;stroke-opacity:1;paint-order:markers fill stroke"
             id="rect2138"
             width="0.5"
             height="2.1110373"
             x="149.04164"
             y="111.6035" /><rect
             style="opacity:0.998;fill:#979895;fill-opacity:1;stroke:none;stroke-width:0.972449;stroke-miterlimit:4;stroke-dasharray:none;stroke-opacity:1;paint-order:markers fill stroke"
             id="rect2140"
             width="0.5"
             height="2.1110373"
             x="150.35597"
             y="111.6035" /><rect
             style="opacity:0.998;fill:#979895;fill-opacity:1;stroke:none;stroke-width:0.972449;stroke-miterlimit:4;stroke-dasharray:none;stroke-opacity:1;paint-order:markers fill stroke"
             id="rect2142"
             width="0.5"
             height="2.1110373"
             x="151.6703"
             y="111.6035" /><rect
             style="opacity:0.998;fill:#979895;fill-opacity:1;stroke:none;stroke-width:0.972449;stroke-miterlimit:4;stroke-dasharray:none;stroke-opacity:1;paint-order:markers fill stroke"
             id="rect2144"
             width="0.5"
             height="2.1110373"
             x="152.98465"
             y="111.6035" /></g><rect
           style="opacity:0.998;fill:#3c373b;fill-opacity:1;stroke:none;stroke-width:0.74201;stroke-miterlimit:4;stroke-dasharray:none;stroke-opacity:1;paint-order:markers fill stroke"
           id="rect1688"
           width="10"
           height="3.5"
           x="144.94881"
           y="108.75928" /></g><g
         id="g1764"><g
           id="g64027"><circle
             id="connector60pin"
             connectorname="RESET"
             gorn="0.4.0.0.0.136"
             style="fill:#d7d9d2;fill-opacity:1;stroke:#9a916c;stroke-width:0.3374"
             r="0.61870062"
             cy="100.08973"
             cx="20.798502" /><circle
             id="connector60pin-2"
             connectorname="RESET"
             gorn="0.4.0.0.0.136"
             style="fill:#d7d9d2;fill-opacity:1;stroke:#9a916c;stroke-width:0.3374"
             r="0.61870062"
             cy="102.62973"
             cx="20.798502" /><circle
             id="connector60pin-1"
             connectorname="RESET"
             gorn="0.4.0.0.0.136"
             style="fill:#d7d9d2;fill-opacity:1;stroke:#9a916c;stroke-width:0.3374"
             r="0.61870062"
             cy="105.16972"
             cx="20.798502" /><circle
             id="connector60pin-7"
             connectorname="RESET"
             gorn="0.4.0.0.0.136"
             style="fill:#d7d9d2;fill-opacity:1;stroke:#9a916c;stroke-width:0.3374"
             r="0.61870062"
             cy="107.70974"
             cx="20.798502" /><circle
             id="connector60pin-9"
             connectorname="RESET"
             gorn="0.4.0.0.0.136"
             style="fill:#d7d9d2;fill-opacity:1;stroke:#9a916c;stroke-width:0.3374"
             r="0.61870062"
             cy="110.24974"
             cx="20.798502" /><circle
             id="connector60pin-78"
             connectorname="RESET"
             gorn="0.4.0.0.0.136"
             style="fill:#d7d9d2;fill-opacity:1;stroke:#9a916c;stroke-width:0.3374"
             r="0.61870062"
             cy="115.32973"
             cx="20.798502" /><circle
             id="connector60pin-21"
             connectorname="RESET"
             gorn="0.4.0.0.0.136"
             style="fill:#d7d9d2;fill-opacity:1;stroke:#9a916c;stroke-width:0.3374"
             r="0.61870062"
             cy="112.78973"
             cx="20.798502" /><circle
             id="connector60pin-12"
             connectorname="RESET"
             gorn="0.4.0.0.0.136"
             style="fill:#d7d9d2;fill-opacity:1;stroke:#9a916c;stroke-width:0.3374"
             r="0.61870062"
             cy="117.86974"
             cx="20.798502" /><circle
             id="connector60pin-95"
             connectorname="RESET"
             gorn="0.4.0.0.0.136"
             style="fill:#d7d9d2;fill-opacity:1;stroke:#9a916c;stroke-width:0.3374"
             r="0.61870062"
             cy="120.40973"
             cx="20.798502" /><circle
             id="connector60pin-6"
             connectorname="RESET"
             gorn="0.4.0.0.0.136"
             style="fill:#d7d9d2;fill-opacity:1;stroke:#9a916c;stroke-width:0.3374"
             r="0.61870062"
             cy="125.48973"
             cx="20.798502" /><circle
             id="connector60pin-18"
             connectorname="RESET"
             gorn="0.4.0.0.0.136"
             style="fill:#d7d9d2;fill-opacity:1;stroke:#9a916c;stroke-width:0.3374"
             r="0.61870062"
             cy="122.94973"
             cx="20.798502" /><circle
             id="connector60pin-76"
             connectorname="RESET"
             gorn="0.4.0.0.0.136"
             style="fill:#d7d9d2;fill-opacity:1;stroke:#9a916c;stroke-width:0.3374"
             r="0.61870062"
             cy="128.02972"
             cx="20.798502" /><circle
             id="connector60pin-5"
             connectorname="RESET"
             gorn="0.4.0.0.0.136"
             style="fill:#d7d9d2;fill-opacity:1;stroke:#9a916c;stroke-width:0.3374"
             r="0.61870062"
             cy="133.10973"
             cx="20.798502" /><circle
             id="connector60pin-14"
             connectorname="RESET"
             gorn="0.4.0.0.0.136"
             style="fill:#d7d9d2;fill-opacity:1;stroke:#9a916c;stroke-width:0.3374"
             r="0.61870062"
             cy="130.56973"
             cx="20.798502" /><circle
             id="connector60pin-28"
             connectorname="RESET"
             gorn="0.4.0.0.0.136"
             style="fill:#d7d9d2;fill-opacity:1;stroke:#9a916c;stroke-width:0.3374"
             cy="135.64973"
             cx="20.798502"
             r="0.61870062" /></g><g
           id="g64438"><g
             aria-label="VDD33 "
             transform="scale(0.98918612,1.0109321)"
             id="text1480-6-9-77-4"
             style="font-size:1.3px;line-height:1.25;font-family:'OCR A Extended';-inkscape-font-specification:'OCR A Extended, Normal';fill:#ffffff;stroke-width:0.695957"><path
               d="m 22.724754,121.25296 v 0.19614 l -0.21709,0.55288 q -0.0165,0.04 -0.05205,0.04 -0.03745,0 -0.05332,-0.04 l -0.215821,-0.55288 v -0.19614 q 0,-0.0229 0.01524,-0.0387 0.01587,-0.0159 0.03809,-0.0159 0.02222,0 0.03745,0.0159 0.01587,0.0159 0.01587,0.0387 v 0.17392 l 0.1625,0.41387 0.1625,-0.4126 v -0.17519 q 0,-0.0229 0.01523,-0.0387 0.01587,-0.0159 0.03809,-0.0159 0.02222,0 0.03745,0.0159 0.01587,0.0159 0.01587,0.0387 z"
               id="path64327" /><path
               d="m 23.022459,121.19837 h 0.210742 q 0.04126,6.3e-4 0.07998,0.0267 0.03936,0.026 0.05776,0.0628 l 0.105371,0.21328 q 0.02983,0.0578 0.02983,0.1206 0,0.0584 -0.03174,0.11998 l -0.106006,0.21074 q -0.02031,0.0406 -0.0584,0.0654 -0.03808,0.0241 -0.08506,0.0241 h -0.20376 q -0.02222,0 -0.03809,-0.0159 -0.01523,-0.0159 -0.01523,-0.0374 0,-0.0222 0.01523,-0.0381 0.01587,-0.0165 0.03809,-0.0165 h 0.05586 v -0.62778 h -0.05459 q -0.02222,0 -0.03809,-0.0159 -0.01524,-0.0165 -0.01524,-0.0387 0,-0.0216 0.01524,-0.0375 0.01587,-0.0159 0.03809,-0.0159 z m 0.16123,0.10791 v 0.62905 h 0.03745 q 0.03555,0 0.05332,-0.0349 l 0.105371,-0.20948 q 0.01968,-0.0413 0.01968,-0.0692 0,-0.0349 -0.01587,-0.066 l -0.109179,-0.21709 q -0.01714,-0.0324 -0.05586,-0.0324 z"
               id="path64329" /><path
               d="m 23.807664,121.19837 h 0.210742 q 0.04126,6.3e-4 0.07998,0.0267 0.03936,0.026 0.05776,0.0628 l 0.105371,0.21328 q 0.02983,0.0578 0.02983,0.1206 0,0.0584 -0.03174,0.11998 l -0.106006,0.21074 q -0.02031,0.0406 -0.0584,0.0654 -0.03809,0.0241 -0.08506,0.0241 h -0.20376 q -0.02222,0 -0.03809,-0.0159 -0.01523,-0.0159 -0.01523,-0.0374 0,-0.0222 0.01523,-0.0381 0.01587,-0.0165 0.03809,-0.0165 h 0.05586 v -0.62778 h -0.05459 q -0.02222,0 -0.03809,-0.0159 -0.01524,-0.0165 -0.01524,-0.0387 0,-0.0216 0.01524,-0.0375 0.01587,-0.0159 0.03809,-0.0159 z m 0.16123,0.10791 v 0.62905 h 0.03745 q 0.03555,0 0.05332,-0.0349 l 0.105371,-0.20948 q 0.01968,-0.0413 0.01968,-0.0692 0,-0.0349 -0.01587,-0.066 l -0.109179,-0.21709 q -0.01714,-0.0324 -0.05586,-0.0324 z"
               id="path64331" /><path
               d="m 25.07783,121.30501 v 0.19995 q 0,0.0698 -0.04316,0.11299 0.04443,0.0495 0.04443,0.10791 v 0.2082 q 0,0.0438 -0.03174,0.0755 -0.03174,0.0311 -0.07617,0.0311 h -0.377051 q -0.02222,0 -0.03809,-0.0152 -0.01523,-0.0159 -0.01523,-0.0381 0,-0.0222 0.01523,-0.0375 0.01587,-0.0159 0.03809,-0.0159 h 0.375781 v -0.2082 q 0,-0.0222 -0.01587,-0.0381 -0.01523,-0.0165 -0.03745,-0.0165 h -0.214551 q -0.02222,0 -0.03809,-0.0152 -0.01523,-0.0152 -0.01523,-0.0381 0,-0.0222 0.01523,-0.0375 0.01587,-0.0159 0.03809,-0.0159 h 0.215821 q 0.02158,0 0.03745,-0.0152 0.01587,-0.0159 0.01587,-0.0381 v -0.2063 h -0.38086 q -0.02222,0 -0.03809,-0.0152 -0.01524,-0.0159 -0.01524,-0.0381 0,-0.0222 0.01524,-0.0375 0.01587,-0.0159 0.03809,-0.0159 h 0.380859 q 0.04443,0 0.07554,0.0317 0.0311,0.0311 0.0311,0.0749 z"
               id="path64333" /><path
               d="m 25.863035,121.30501 v 0.19995 q 0,0.0698 -0.04316,0.11299 0.04443,0.0495 0.04443,0.10791 v 0.2082 q 0,0.0438 -0.03174,0.0755 -0.03174,0.0311 -0.07617,0.0311 h -0.377051 q -0.02222,0 -0.03809,-0.0152 -0.01523,-0.0159 -0.01523,-0.0381 0,-0.0222 0.01523,-0.0375 0.01587,-0.0159 0.03809,-0.0159 h 0.375782 v -0.2082 q 0,-0.0222 -0.01587,-0.0381 -0.01523,-0.0165 -0.03745,-0.0165 h -0.21455 q -0.02222,0 -0.03809,-0.0152 -0.01524,-0.0152 -0.01524,-0.0381 0,-0.0222 0.01524,-0.0375 0.01587,-0.0159 0.03809,-0.0159 h 0.21582 q 0.02158,0 0.03745,-0.0152 0.01587,-0.0159 0.01587,-0.0381 v -0.2063 h -0.380859 q -0.02222,0 -0.03809,-0.0152 -0.01524,-0.0159 -0.01524,-0.0381 0,-0.0222 0.01524,-0.0375 0.01587,-0.0159 0.03809,-0.0159 h 0.380859 q 0.04443,0 0.07554,0.0317 0.0311,0.0311 0.0311,0.0749 z"
               id="path64335" /></g><g
             aria-label="V_USB "
             transform="scale(0.98918612,1.0109321)"
             id="text1480-6-9-77-0"
             style="font-size:1.3px;line-height:1.25;font-family:'OCR A Extended';-inkscape-font-specification:'OCR A Extended, Normal';fill:#ffffff;stroke-width:0.695957"><path
               d="m 22.724754,123.68424 v 0.19614 l -0.21709,0.55288 q -0.0165,0.04 -0.05205,0.04 -0.03745,0 -0.05332,-0.04 l -0.215821,-0.55288 v -0.19614 q 0,-0.0229 0.01524,-0.0387 0.01587,-0.0159 0.03809,-0.0159 0.02222,0 0.03745,0.0159 0.01587,0.0159 0.01587,0.0387 v 0.17392 l 0.1625,0.41387 0.1625,-0.4126 v -0.17519 q 0,-0.0229 0.01523,-0.0387 0.01587,-0.0159 0.03809,-0.0159 0.02222,0 0.03745,0.0159 0.01587,0.0159 0.01587,0.0387 z"
               id="path64338" /><path
               d="m 23.630564,124.63575 h -0.7979 v -0.10791 h 0.7979 z"
               id="path64340" /><path
               d="m 23.754343,124.31329 v -0.62905 q 0,-0.0222 0.01587,-0.0381 0.01587,-0.0165 0.03745,-0.0165 0.02158,0 0.03745,0.0159 0.01587,0.0159 0.01587,0.0374 v 0.63032 q 0,0.0209 0.01587,0.0368 0.01587,0.0152 0.03745,0.0152 h 0.21836 q 0.02222,0 0.03745,-0.0152 0.01587,-0.0152 0.01587,-0.0368 v -0.62905 q 0,-0.0229 0.01523,-0.0387 0.01587,-0.0159 0.03809,-0.0159 0.02222,0 0.03745,0.0159 0.01587,0.0159 0.01587,0.0387 v 0.62778 q 0,0.066 -0.04761,0.11362 -0.04697,0.0476 -0.112353,0.0476 H 23.9143 q -0.06602,0 -0.112988,-0.047 -0.04697,-0.047 -0.04697,-0.11299 z"
               id="path64342" /><path
               d="m 24.661423,123.62965 h 0.277393 q 0.05078,0 0.09585,0.0432 0.0457,0.0425 0.0457,0.10347 0,0.0229 -0.0165,0.0387 -0.01587,0.0159 -0.03555,0.0159 -0.02729,0 -0.03745,-0.0121 -0.01016,-0.0127 -0.01968,-0.0463 -0.0089,-0.0336 -0.04062,-0.0336 h -0.263428 q -0.01904,0 -0.01904,0.0121 0,0.008 0.0083,0.0178 l 0.395459,0.50591 q 0.02857,0.0368 0.02857,0.0787 0,0.0476 -0.03491,0.0838 -0.03428,0.0362 -0.07681,0.0362 h -0.287549 q -0.05713,0 -0.09966,-0.0432 -0.0419,-0.0438 -0.0419,-0.0959 0,-0.0597 0.05586,-0.0597 0.02158,0 0.03682,0.0159 0.01524,0.0152 0.01524,0.0362 0,0.0171 0.01142,0.0286 0.01206,0.0114 0.02983,0.0114 H 24.9541 q 0.01714,0 0.01714,-0.0133 0,-0.006 -0.0083,-0.0165 l -0.394824,-0.50591 q -0.02793,-0.0362 -0.02793,-0.0787 0,-0.0495 0.03555,-0.0857 0.03555,-0.0368 0.08569,-0.0368 z"
               id="path64344" /><path
               d="m 25.863035,124.21173 v 0.047 q 0,0.0882 -0.06284,0.15171 -0.06221,0.0628 -0.150439,0.0628 h -0.32627 v -0.8436 h 0.32627 q 0.08823,0 0.150439,0.0628 0.06284,0.0628 0.06284,0.15171 v 0.0451 q 0,0.0946 -0.073,0.16123 0.073,0.0679 0.073,0.16123 z m -0.10918,-0.32373 v -0.0438 q 0,-0.0444 -0.03174,-0.0762 -0.0311,-0.0317 -0.0749,-0.0317 h -0.217089 v 0.25835 h 0.217089 q 0.04316,0 0.0749,-0.0311 0.03174,-0.0317 0.03174,-0.0755 z m 0,0.3707 v -0.0444 q 0,-0.0444 -0.03174,-0.0762 -0.0311,-0.0317 -0.0749,-0.0317 h -0.21582 v 0.25898 h 0.21582 q 0.04316,0 0.0749,-0.0311 0.03174,-0.0317 0.03174,-0.0755 z"
               id="path64346" /></g><g
             aria-label="CHIP_EN "
             transform="scale(0.98918612,1.0109321)"
             id="text1480-6-9-77-0-8"
             style="font-size:1.3px;line-height:1.25;font-family:'OCR A Extended';-inkscape-font-specification:'OCR A Extended, Normal';fill:#ffffff;stroke-width:0.695957"><path
               d="m 22.476561,126.87914 h 0.192334 q 0.02222,0 0.03809,0.0159 0.0165,0.0152 0.0165,0.0375 0,0.0222 -0.0165,0.0381 -0.01587,0.0152 -0.03809,0.0152 h -0.199316 q -0.03809,0 -0.07871,-0.0241 -0.04063,-0.0241 -0.05649,-0.054 l -0.123145,-0.23803 q -0.02476,-0.0514 -0.02476,-0.10538 0,-0.0597 0.02349,-0.10346 l 0.124414,-0.2355 q 0.01777,-0.033 0.05522,-0.0578 0.03745,-0.0254 0.07236,-0.0254 H 22.6727 q 0.02222,0 0.03745,0.0159 0.01587,0.0159 0.01587,0.0375 0,0.0222 -0.01587,0.0387 -0.01523,0.0159 -0.03745,0.0159 h -0.203125 q -0.02539,0 -0.04126,0.0298 l -0.118066,0.2209 q -0.01396,0.026 -0.01396,0.0616 0,0.0375 0.01523,0.066 l 0.112989,0.21709 q 0.01587,0.0336 0.05205,0.0336 z"
               id="path64349" /><path
               d="m 22.9666,126.93246 v -0.73696 q 0,-0.0216 0.01524,-0.0375 0.01587,-0.0159 0.03809,-0.0159 0.02158,0 0.03745,0.0159 0.01587,0.0159 0.01587,0.0375 v 0.3142 h 0.325 v -0.3142 q 0,-0.0216 0.01523,-0.0375 0.01587,-0.0159 0.03809,-0.0159 0.02222,0 0.03745,0.0159 0.01587,0.0159 0.01587,0.0387 v 0.73569 q 0,0.0216 -0.0165,0.0374 -0.01587,0.0159 -0.03682,0.0159 -0.02285,0 -0.03809,-0.0152 -0.01523,-0.0159 -0.01523,-0.0381 v -0.31611 h -0.32373 v 0.31611 q 0,0.0216 -0.0165,0.0374 -0.01587,0.0159 -0.03809,0.0159 -0.02158,0 -0.03745,-0.0152 -0.01587,-0.0159 -0.01587,-0.0381 z"
               id="path64351" /><path
               d="m 23.806395,126.14218 h 0.431641 q 0.02095,0 0.03682,0.0159 0.0165,0.0159 0.0165,0.0375 0,0.0222 -0.01587,0.0387 -0.01587,0.0159 -0.03745,0.0159 h -0.161231 v 0.62905 h 0.161231 q 0.02222,0 0.03745,0.0159 0.01587,0.0152 0.01587,0.0375 0,0.0222 -0.01587,0.0381 -0.01587,0.0152 -0.03745,0.0152 h -0.431641 q -0.02222,0 -0.03809,-0.0152 -0.01523,-0.0159 -0.01523,-0.0381 0,-0.0222 0.01523,-0.0375 0.01587,-0.0159 0.03809,-0.0159 h 0.16377 v -0.62905 h -0.16377 q -0.02222,0 -0.03809,-0.0159 -0.01523,-0.0159 -0.01523,-0.0374 0,-0.0229 0.01523,-0.0387 0.01587,-0.0159 0.03809,-0.0159 z"
               id="path64353" /><path
               d="m 24.53955,126.93246 v -0.79028 h 0.37832 q 0.06538,0 0.112353,0.0476 0.04761,0.0476 0.04761,0.11363 v 0.19995 q 0,0.066 -0.04697,0.11299 -0.04697,0.047 -0.112988,0.047 h -0.27041 v 0.26914 q 0,0.0222 -0.01587,0.0381 -0.01524,0.0152 -0.03745,0.0152 -0.02285,0 -0.03872,-0.0152 -0.01587,-0.0159 -0.01587,-0.0381 z m 0.10791,-0.37578 h 0.27041 q 0.02158,0 0.03745,-0.0152 0.01587,-0.0159 0.01587,-0.0381 v -0.19995 q 0,-0.0222 -0.01587,-0.0375 -0.01587,-0.0159 -0.03745,-0.0159 h -0.27041 z"
               id="path64355" /><path
               d="m 25.984911,127.14828 h -0.7979 v -0.10791 h 0.7979 z"
               id="path64357" /><path
               d="M 26.593651,126.25009 H 26.2166 v 0.25961 h 0.1625 q 0.02158,0 0.03745,0.0159 0.01587,0.0159 0.01587,0.0374 0,0.0229 -0.01587,0.0387 -0.01524,0.0159 -0.03745,0.0159 h -0.1625 v 0.26153 h 0.378321 q 0.02158,0 0.03745,0.0159 0.01587,0.0152 0.01587,0.0375 0,0.0222 -0.0165,0.0381 -0.01587,0.0152 -0.03809,0.0152 H 26.10996 v -0.8436 h 0.483691 q 0.02222,0 0.03809,0.0165 0.0165,0.0159 0.0165,0.0381 0,0.0216 -0.0165,0.0374 -0.01587,0.0159 -0.03809,0.0159 z"
               id="path64359" /><path
               d="m 27.432176,126.19677 v 0.78901 h -0.143457 l -0.286914,-0.65508 v 0.60176 q 0,0.0222 -0.01587,0.0381 -0.01523,0.0152 -0.03745,0.0152 -0.02222,0 -0.03809,-0.0152 -0.01523,-0.0159 -0.01523,-0.0381 v -0.79028 h 0.141552 l 0.287549,0.6538 v -0.59921 q 0,-0.0222 0.01587,-0.0381 0.0165,-0.0165 0.03872,-0.0165 0.02222,0 0.03745,0.0159 0.01587,0.0159 0.01587,0.0387 z"
               id="path64361" /></g><g
             aria-label="GND "
             transform="scale(0.98918612,1.0109321)"
             id="text1480-6-9-77-0-8-8"
             style="font-size:1.3px;line-height:1.25;font-family:'OCR A Extended';-inkscape-font-specification:'OCR A Extended, Normal';fill:#ffffff;stroke-width:0.695957"><path
               d="m 22.498143,128.73597 h 0.177099 q 0.02222,0 0.03745,0.0159 0.01587,0.0152 0.01587,0.0375 0,0.0235 -0.01714,0.0394 -0.0165,0.0152 -0.03618,0.0152 h -0.168847 q -0.02476,0 -0.04317,0.0235 l -0.149804,0.19233 q -0.01904,0.0229 -0.01904,0.0635 v 0.29516 q 0,0.0229 0.01523,0.0387 0.01587,0.0159 0.03809,0.0159 h 0.21709 q 0.02158,0 0.03745,-0.0159 0.01587,-0.0159 0.01587,-0.0375 v -0.11552 h -0.110449 q -0.02285,0 -0.03809,-0.0152 -0.01523,-0.0159 -0.01523,-0.0381 0,-0.0222 0.01523,-0.0375 0.01524,-0.0159 0.03809,-0.0159 h 0.21709 v 0.22216 q 0,0.066 -0.04697,0.11299 -0.04697,0.047 -0.112988,0.047 h -0.21709 q -0.06665,0 -0.114258,-0.047 -0.04697,-0.047 -0.04697,-0.11299 v -0.29516 q 0,-0.0794 0.04253,-0.13394 l 0.157422,-0.19995 q 0.01714,-0.0229 0.04761,-0.0387 0.0311,-0.0159 0.06411,-0.0159 z"
               id="path64364" /><path
               d="m 23.511229,128.79056 v 0.78901 h -0.143458 l -0.286914,-0.65507 v 0.60175 q 0,0.0222 -0.01587,0.0381 -0.01523,0.0152 -0.03745,0.0152 -0.02222,0 -0.03809,-0.0152 -0.01523,-0.0159 -0.01523,-0.0381 v -0.79028 h 0.141553 l 0.287548,0.65381 v -0.59922 q 0,-0.0222 0.01587,-0.0381 0.0165,-0.0165 0.03872,-0.0165 0.02222,0 0.03745,0.0159 0.01587,0.0159 0.01587,0.0387 z"
               id="path64366" /><path
               d="m 23.811473,128.73597 h 0.210742 q 0.04126,6.4e-4 0.07998,0.0267 0.03936,0.026 0.05776,0.0628 l 0.105371,0.21328 q 0.02983,0.0578 0.02983,0.12061 0,0.0584 -0.03174,0.11997 l -0.106006,0.21074 q -0.02031,0.0406 -0.0584,0.0654 -0.03808,0.0241 -0.08506,0.0241 h -0.20376 q -0.02222,0 -0.03809,-0.0159 -0.01523,-0.0159 -0.01523,-0.0375 0,-0.0222 0.01523,-0.0381 0.01587,-0.0165 0.03809,-0.0165 h 0.05586 v -0.62778 h -0.05459 q -0.02222,0 -0.03809,-0.0159 -0.01524,-0.0165 -0.01524,-0.0387 0,-0.0216 0.01524,-0.0375 0.01587,-0.0159 0.03809,-0.0159 z m 0.16123,0.10791 v 0.62905 h 0.03745 q 0.03555,0 0.05332,-0.0349 l 0.105371,-0.20947 q 0.01968,-0.0413 0.01968,-0.0692 0,-0.0349 -0.01587,-0.066 l -0.109179,-0.21709 q -0.01714,-0.0324 -0.05586,-0.0324 z"
               id="path64368" /></g><g
             aria-label="GND "
             transform="scale(0.98918612,1.0109321)"
             id="text1480-6-9-77-0-8-8-2"
             style="font-size:1.3px;line-height:1.25;font-family:'OCR A Extended';-inkscape-font-specification:'OCR A Extended, Normal';fill:#ffffff;stroke-width:0.695957"><path
               d="m 22.498143,131.2485 h 0.177099 q 0.02222,0 0.03745,0.0159 0.01587,0.0152 0.01587,0.0374 0,0.0235 -0.01714,0.0394 -0.0165,0.0152 -0.03618,0.0152 h -0.168847 q -0.02476,0 -0.04317,0.0235 l -0.149804,0.19233 q -0.01904,0.0229 -0.01904,0.0635 v 0.29516 q 0,0.0229 0.01523,0.0387 0.01587,0.0159 0.03809,0.0159 h 0.21709 q 0.02158,0 0.03745,-0.0159 0.01587,-0.0159 0.01587,-0.0375 v -0.11553 h -0.110449 q -0.02285,0 -0.03809,-0.0152 -0.01523,-0.0159 -0.01523,-0.0381 0,-0.0222 0.01523,-0.0375 0.01524,-0.0159 0.03809,-0.0159 h 0.21709 v 0.22217 q 0,0.066 -0.04697,0.11299 -0.04697,0.047 -0.112988,0.047 h -0.21709 q -0.06665,0 -0.114258,-0.047 -0.04697,-0.047 -0.04697,-0.11299 v -0.29516 q 0,-0.0794 0.04253,-0.13394 l 0.157422,-0.19995 q 0.01714,-0.0229 0.04761,-0.0387 0.0311,-0.0159 0.06411,-0.0159 z"
               id="path64371" /><path
               d="m 23.511229,131.30309 v 0.78901 h -0.143458 l -0.286914,-0.65508 v 0.60176 q 0,0.0222 -0.01587,0.0381 -0.01523,0.0152 -0.03745,0.0152 -0.02222,0 -0.03809,-0.0152 -0.01523,-0.0159 -0.01523,-0.0381 v -0.79028 h 0.141553 l 0.287548,0.65381 v -0.59922 q 0,-0.0222 0.01587,-0.0381 0.0165,-0.0165 0.03872,-0.0165 0.02222,0 0.03745,0.0159 0.01587,0.0159 0.01587,0.0387 z"
               id="path64373" /><path
               d="m 23.811473,131.2485 h 0.210742 q 0.04126,6.3e-4 0.07998,0.0267 0.03936,0.026 0.05776,0.0628 l 0.105371,0.21328 q 0.02983,0.0578 0.02983,0.12061 0,0.0584 -0.03174,0.11997 l -0.106006,0.21074 q -0.02031,0.0406 -0.0584,0.0654 -0.03808,0.0241 -0.08506,0.0241 h -0.20376 q -0.02222,0 -0.03809,-0.0159 -0.01523,-0.0159 -0.01523,-0.0375 0,-0.0222 0.01523,-0.0381 0.01587,-0.0165 0.03809,-0.0165 h 0.05586 v -0.62778 h -0.05459 q -0.02222,0 -0.03809,-0.0159 -0.01524,-0.0165 -0.01524,-0.0387 0,-0.0216 0.01524,-0.0374 0.01587,-0.0159 0.03809,-0.0159 z m 0.16123,0.10791 v 0.62905 h 0.03745 q 0.03555,0 0.05332,-0.0349 l 0.105371,-0.20947 q 0.01968,-0.0413 0.01968,-0.0692 0,-0.0349 -0.01587,-0.066 l -0.109179,-0.21709 q -0.01714,-0.0324 -0.05586,-0.0324 z"
               id="path64375" /></g><g
             aria-label="AOUT "
             transform="scale(0.98918612,1.0109321)"
             id="text1480-6-9-77-0-8-8-2-6"
             style="font-size:1.3px;line-height:1.25;font-family:'OCR A Extended';-inkscape-font-specification:'OCR A Extended, Normal';fill:#ffffff;stroke-width:0.695957"><path
               d="m 22.189647,134.53036 0.21582,-0.72934 q 0.0127,-0.04 0.05332,-0.04 0.03936,0 0.04951,0.0336 l 0.212647,0.74077 q 0.0025,0.008 0.0025,0.0159 0,0.0222 -0.01524,0.0381 -0.01523,0.0152 -0.03491,0.0152 -0.04189,0 -0.05332,-0.0387 l -0.04316,-0.14473 h -0.243115 l -0.04697,0.15489 q -0.0019,0.0102 -0.01587,0.0197 -0.01397,0.009 -0.03047,0.009 -0.02349,0 -0.03872,-0.0159 -0.01523,-0.0159 -0.01523,-0.0387 0,-0.01 0.0032,-0.0197 z m 0.267871,-0.52241 -0.09141,0.30532 h 0.179638 z"
               id="path64378" /><path
               d="m 23.366502,133.8391 0.117432,0.23931 q 0.02476,0.0489 0.02476,0.106 0,0.0559 -0.02476,0.10538 l -0.117432,0.23676 q -0.03745,0.0781 -0.126953,0.0781 -0.04253,0 -0.07681,-0.0222 -0.03364,-0.0222 -0.05078,-0.0559 l -0.118066,-0.23676 q -0.02349,-0.0463 -0.02349,-0.10538 0,-0.059 0.02349,-0.106 l 0.118066,-0.23931 q 0.03999,-0.0781 0.127588,-0.0781 0.08887,0 0.126953,0.0781 z m -0.1625,0.0533 -0.110449,0.22471 q -0.01523,0.0336 -0.01523,0.066 0,0.0349 0.01523,0.0666 l 0.113623,0.22724 q 0.0089,0.0209 0.03237,0.0209 0.02031,0 0.0311,-0.0209 l 0.114258,-0.22724 q 0.01587,-0.0336 0.01587,-0.0666 0,-0.0349 -0.01587,-0.066 l -0.111719,-0.22471 q -0.01079,-0.0247 -0.03364,-0.0247 -0.02285,0 -0.03555,0.0247 z"
               id="path64380" /><path
               d="m 23.755614,134.44467 v -0.62905 q 0,-0.0222 0.01587,-0.0381 0.01587,-0.0165 0.03745,-0.0165 0.02158,0 0.03745,0.0159 0.01587,0.0159 0.01587,0.0374 v 0.63032 q 0,0.0209 0.01587,0.0368 0.01587,0.0152 0.03745,0.0152 h 0.218359 q 0.02222,0 0.03745,-0.0152 0.01587,-0.0152 0.01587,-0.0368 v -0.62905 q 0,-0.0229 0.01524,-0.0387 0.01587,-0.0159 0.03809,-0.0159 0.02222,0 0.03745,0.0159 0.01587,0.0159 0.01587,0.0387 v 0.62778 q 0,0.066 -0.04761,0.11362 -0.04697,0.0476 -0.112353,0.0476 h -0.218359 q -0.06602,0 -0.112989,-0.047 -0.04697,-0.047 -0.04697,-0.11299 z"
               id="path64382" /><path
               d="M 24.540819,133.90639 V 133.7623 H 25.0791 v 0.14536 q 0,0.0222 -0.01587,0.0381 -0.01587,0.0152 -0.03745,0.0152 -0.02222,0 -0.03872,-0.0159 -0.01587,-0.0159 -0.01587,-0.0375 v -0.0387 h -0.10791 v 0.68237 q 0,0.0222 -0.01587,0.0381 -0.01587,0.0152 -0.03745,0.0152 -0.02285,0 -0.03872,-0.0152 -0.01587,-0.0159 -0.01587,-0.0381 v -0.68237 h -0.10791 v 0.0374 q 0,0.0222 -0.01587,0.0381 -0.01523,0.0152 -0.03745,0.0152 -0.02222,0 -0.03809,-0.0152 -0.01523,-0.0159 -0.01523,-0.0381 z"
               id="path64384" /></g><g
             aria-label="2 "
             transform="scale(0.98918612,1.0109321)"
             id="text1480-6-9"
             style="font-size:1.3px;line-height:1.25;font-family:'OCR A Extended';-inkscape-font-specification:'OCR A Extended, Normal';fill:#ffffff;stroke-width:0.695957"><path
               d="m 22.675242,104.45359 h -0.484961 v -0.36817 q 0,-0.0444 0.0311,-0.0762 0.03174,-0.0317 0.07554,-0.0317 h 0.32373 v -0.25962 h -0.380859 q -0.02285,0 -0.03809,-0.0152 -0.01524,-0.0159 -0.01524,-0.0381 0,-0.0222 0.01524,-0.0374 0.01523,-0.0159 0.03809,-0.0159 h 0.380859 q 0.04443,0 0.07617,0.0317 0.03174,0.0311 0.03174,0.0749 v 0.25962 q 0,0.0451 -0.03174,0.0768 -0.03174,0.0311 -0.07617,0.0311 h -0.32373 v 0.26153 h 0.37832 q 0.02158,0 0.03745,0.0159 0.01587,0.0152 0.01587,0.0375 0,0.0222 -0.01587,0.0381 -0.01587,0.0152 -0.03745,0.0152 z"
               id="path64306" /></g><g
             aria-label="3 "
             transform="scale(0.98918612,1.0109321)"
             id="text1480-6-9-0"
             style="font-size:1.3px;line-height:1.25;font-family:'OCR A Extended';-inkscape-font-specification:'OCR A Extended, Normal';fill:#ffffff;stroke-width:0.695957"><path
               d="m 22.727294,106.23044 v 0.19996 q 0,0.0698 -0.04316,0.11298 0.04443,0.0495 0.04443,0.10791 v 0.20821 q 0,0.0438 -0.03174,0.0755 -0.03174,0.0311 -0.07617,0.0311 h -0.377051 q -0.02222,0 -0.03809,-0.0152 -0.01523,-0.0159 -0.01523,-0.0381 0,-0.0222 0.01523,-0.0374 0.01587,-0.0159 0.03809,-0.0159 h 0.375782 v -0.20821 q 0,-0.0222 -0.01587,-0.0381 -0.01523,-0.0165 -0.03745,-0.0165 h -0.21455 q -0.02222,0 -0.03809,-0.0152 -0.01524,-0.0152 -0.01524,-0.0381 0,-0.0222 0.01524,-0.0374 0.01587,-0.0159 0.03809,-0.0159 h 0.21582 q 0.02158,0 0.03745,-0.0152 0.01587,-0.0159 0.01587,-0.0381 v -0.2063 h -0.380859 q -0.02222,0 -0.03809,-0.0152 -0.01524,-0.0159 -0.01524,-0.0381 0,-0.0222 0.01524,-0.0375 0.01587,-0.0159 0.03809,-0.0159 h 0.380859 q 0.04443,0 0.07554,0.0317 0.0311,0.0311 0.0311,0.0749 z"
               id="path64309" /></g><g
             aria-label="6 "
             transform="scale(0.98918612,1.0109321)"
             id="text1480-6-9-4"
             style="font-size:1.3px;line-height:1.25;font-family:'OCR A Extended';-inkscape-font-specification:'OCR A Extended, Normal';fill:#ffffff;stroke-width:0.695957"><path
               d="m 22.241063,113.66139 h 0.05332 q 0.02222,0 0.03745,0.0159 0.01587,0.0159 0.01587,0.0374 0,0.0222 -0.01587,0.0381 -0.01523,0.0152 -0.03745,0.0152 v 0.3523 h 0.375781 q 0.02158,0 0.03745,0.0165 0.01587,0.0159 0.01587,0.0381 v 0.27549 q 0,0.0222 -0.0165,0.0381 -0.01587,0.0152 -0.03809,0.0152 h -0.427832 q -0.02222,0 -0.03872,-0.0159 -0.01587,-0.0159 -0.01587,-0.0374 v -0.7357 q 0,-0.0222 0.01587,-0.0374 0.01587,-0.0159 0.03872,-0.0159 z m 0.05205,0.56685 v 0.16885 h 0.322461 v -0.16885 z"
               id="path64318" /></g><g
             aria-label="5 "
             transform="scale(0.98918612,1.0109321)"
             id="text1480-6-9-7"
             style="font-size:1.3px;line-height:1.25;font-family:'OCR A Extended';-inkscape-font-specification:'OCR A Extended, Normal';fill:#ffffff;stroke-width:0.695957"><path
               d="m 22.369919,111.88456 h 0.246924 v -0.26152 h -0.322461 v -0.47417 h 0.375781 q 0.02158,0 0.03745,0.0159 0.01587,0.0159 0.01587,0.0375 0,0.0222 -0.01587,0.0381 -0.01523,0.0152 -0.03745,0.0152 h -0.267871 v 0.26089 h 0.214551 q 0.04316,0 0.0749,0.0317 0.03174,0.0317 0.03174,0.0749 v 0.26152 q 0,0.0438 -0.03174,0.0755 -0.0311,0.0311 -0.0749,0.0311 h -0.246924 q -0.03301,0 -0.07046,-0.0159 l -0.08061,-0.0336 q -0.03237,-0.0133 -0.03237,-0.0508 0,-0.0222 0.0146,-0.0375 0.0146,-0.0159 0.03555,-0.0159 0.01587,0 0.03682,0.01 l 0.07046,0.0298 q 0.0127,0.008 0.02603,0.008 z"
               id="path64315" /></g><g
             aria-label="4 "
             transform="scale(0.98918612,1.0109321)"
             id="text1480-6-9-3"
             style="font-size:1.3px;line-height:1.25;font-family:'OCR A Extended';-inkscape-font-specification:'OCR A Extended, Normal';fill:#ffffff;stroke-width:0.695957"><path
               d="m 22.507663,109.42599 v -0.22216 h -0.321191 v -0.51353 q 0,-0.0222 0.01587,-0.0381 0.0165,-0.0165 0.03872,-0.0165 0.02158,0 0.03745,0.0165 0.01587,0.0159 0.01587,0.0381 v 0.40562 h 0.213281 v -0.31231 q 0,-0.0222 0.01524,-0.0381 0.01587,-0.0165 0.03809,-0.0165 0.02222,0 0.03745,0.0165 0.01587,0.0159 0.01587,0.0381 v 0.31231 q 0.02222,0 0.03745,0.0159 0.01587,0.0152 0.01587,0.0375 0,0.0222 -0.01587,0.0381 -0.01523,0.0152 -0.03745,0.0152 v 0.22343 q 0,0.0222 -0.01587,0.0381 -0.01587,0.0152 -0.03745,0.0152 -0.02222,0 -0.03809,-0.0152 -0.01524,-0.0159 -0.01524,-0.0381 z"
               id="path64312" /></g><g
             aria-label="7 "
             transform="scale(0.98918612,1.0109321)"
             id="text1480-6-9-77"
             style="font-size:1.3px;line-height:1.25;font-family:'OCR A Extended';-inkscape-font-specification:'OCR A Extended, Normal';fill:#ffffff;stroke-width:0.695957"><path
               d="m 22.186473,116.2736 v -0.0457 q 0,-0.0222 0.01523,-0.0375 0.01587,-0.0159 0.03809,-0.0159 h 0.483691 v 0.32754 q 0,0.026 -0.01968,0.0432 l -0.196143,0.16757 v 0.2482 q 0,0.0222 -0.01587,0.0387 -0.01523,0.0159 -0.03745,0.0159 -0.02222,0 -0.03872,-0.0159 -0.01587,-0.0159 -0.01587,-0.0374 v -0.26914 q 0,-0.0305 0.01904,-0.047 l 0.196777,-0.1663 v -0.19869 h -0.322461 q -0.01143,0.0457 -0.05332,0.0457 -0.02222,0 -0.03809,-0.0152 -0.01523,-0.0159 -0.01523,-0.0381 z"
               id="path64321" /></g><g
             aria-label="0 "
             transform="scale(0.98918612,1.0109321)"
             id="text1480"
             style="font-size:1.3px;line-height:1.25;font-family:'OCR A Extended';-inkscape-font-specification:'OCR A Extended, Normal';fill:#ffffff;stroke-width:0.695957"><path
               d="m 22.186473,99.326341 v -0.637939 q 0,-0.04189 0.03047,-0.07236 0.03047,-0.03047 0.07236,-0.03047 h 0.332617 q 0.04126,0 0.07109,0.03047 0.03047,0.03047 0.03047,0.07236 v 0.637939 q 0,0.04253 -0.03047,0.073 -0.02983,0.02983 -0.07236,0.02983 h -0.331347 q -0.04316,0 -0.073,-0.02983 -0.02983,-0.03047 -0.02983,-0.073 z m 0.43164,-0.0038 V 98.69348 h -0.325 v 0.629053 z"
               id="path64300" /></g><g
             aria-label="1 "
             transform="scale(0.98918612,1.0109321)"
             id="text1480-6"
             style="font-size:1.3px;line-height:1.25;font-family:'OCR A Extended';-inkscape-font-specification:'OCR A Extended, Normal';fill:#ffffff;stroke-width:0.695957"><path
               d="m 22.239794,101.83443 h 0.163769 v -0.62906 h -0.16123 q -0.02222,0 -0.03809,-0.0152 -0.01523,-0.0159 -0.01523,-0.0381 0,-0.0222 0.01523,-0.0375 0.01587,-0.0159 0.03809,-0.0159 h 0.267871 v 0.7357 h 0.106641 v -0.22217 q 0,-0.0216 0.01523,-0.0375 0.01587,-0.0159 0.03809,-0.0159 0.02222,0 0.03745,0.0159 0.01587,0.0152 0.01587,0.0375 v 0.27549 q 0,0.0222 -0.01587,0.0381 -0.01523,0.0152 -0.03745,0.0152 h -0.430371 q -0.02222,0 -0.03809,-0.0159 -0.01524,-0.0165 -0.01524,-0.0387 0,-0.0216 0.01524,-0.0368 0.01587,-0.0152 0.03809,-0.0152 z"
               id="path64303" /></g><g
             aria-label="8 "
             transform="scale(0.98918612,1.0109321)"
             id="text1480-6-9-77-1"
             style="font-size:1.3px;line-height:1.25;font-family:'OCR A Extended';-inkscape-font-specification:'OCR A Extended, Normal';fill:#ffffff;stroke-width:0.695957"><path
               d="m 22.186473,119.42089 v -0.26026 q 0,-0.0438 0.03174,-0.0749 0.03174,-0.0317 0.07617,-0.0317 v -0.31421 q 0,-0.0222 0.01523,-0.0374 0.01523,-0.0159 0.03809,-0.0159 h 0.21709 q 0.02222,0 0.03745,0.0159 0.01587,0.0152 0.01587,0.0374 v 0.31421 q 0.04316,0 0.0749,0.0311 0.03174,0.0305 0.03174,0.0755 v 0.26153 q 0,0.0438 -0.03174,0.0755 -0.03174,0.0311 -0.0749,0.0311 h -0.32373 q -0.04507,0 -0.07681,-0.033 -0.0311,-0.033 -0.0311,-0.0749 z m 0.214551,-0.62779 v 0.26089 h 0.110449 v -0.26089 z m -0.10664,0.36753 v 0.26153 h 0.32373 v -0.26153 z"
               id="path64324" /></g></g></g></g></g></svg>
