<?xml version="1.0" encoding="UTF-8" standalone="no"?>
<svg
   width="110mm"
   height="110mm"
   viewBox="0 0 110 110"
   version="1.1"
   id="svg8"
   inkscape:version="1.1 (c68e22c387, 2021-05-23)"
   sodipodi:docname="AMB82-MIN Schematic.svg"
   xmlns:inkscape="http://www.inkscape.org/namespaces/inkscape"
   xmlns:sodipodi="http://sodipodi.sourceforge.net/DTD/sodipodi-0.dtd"
   xmlns:xlink="http://www.w3.org/1999/xlink"
   xmlns="http://www.w3.org/2000/svg"
   xmlns:svg="http://www.w3.org/2000/svg"
   xmlns:rdf="http://www.w3.org/1999/02/22-rdf-syntax-ns#"
   xmlns:cc="http://creativecommons.org/ns#"
   xmlns:dc="http://purl.org/dc/elements/1.1/">
  <defs
     id="defs2">
    <rect
       x="90.752083"
       y="62.885414"
       width="50.535416"
       height="33.337502"
       id="rect857" />
    <rect
       x="97.102081"
       y="65.266663"
       width="3.96875"
       height="12.170833"
       id="rect851" />
  </defs>
  <sodipodi:namedview
     id="base"
     pagecolor="#ffffff"
     bordercolor="#666666"
     borderopacity="1.0"
     inkscape:pageopacity="0.0"
     inkscape:pageshadow="2"
     inkscape:zoom="1.28"
     inkscape:cx="170.3125"
     inkscape:cy="210.54688"
     inkscape:document-units="mm"
     inkscape:current-layer="layer1"
     inkscape:document-rotation="0"
     showgrid="false"
     inkscape:window-width="1920"
     inkscape:window-height="1017"
     inkscape:window-x="1272"
     inkscape:window-y="-8"
     inkscape:window-maximized="1"
     fit-margin-top="0"
     fit-margin-left="0"
     fit-margin-right="0"
     fit-margin-bottom="0"
     inkscape:pagecheckerboard="0" />
  <metadata
     id="metadata5">
    <rdf:RDF>
      <cc:Work
         rdf:about="">
        <dc:format>image/svg+xml</dc:format>
        <dc:type
           rdf:resource="http://purl.org/dc/dcmitype/StillImage" />
      </cc:Work>
    </rdf:RDF>
  </metadata>
  <g
     inkscape:label="Layer 1"
     inkscape:groupmode="layer"
     id="layer1"
     transform="translate(-60.980666,-45.966661)">
    <g
       id="g2965">
      <g
         id="g2819">
        <rect
           style="opacity:0.998;fill:none;stroke:#000000;stroke-width:0.530529;stroke-miterlimit:4;stroke-dasharray:none;paint-order:markers fill stroke"
           id="rect24"
           width="89.469475"
           height="109.46947"
           x="71.245941"
           y="46.231926" />
        <g
           id="g2697">
          <rect
             style="opacity:0.998;fill:#000000;fill-opacity:1;stroke:none;stroke-width:0.257401;stroke-miterlimit:4;stroke-dasharray:none;paint-order:markers fill stroke"
             id="rect1107"
             width="9.999814"
             height="1"
             x="160.98067"
             y="52.966663"
             inkscape:tile-cx="96.171282"
             inkscape:tile-cy="14.919001"
             inkscape:tile-w="11.564999"
             inkscape:tile-h="0.99999998"
             inkscape:tile-x0="90.388782"
             inkscape:tile-y0="14.419001" />
          <use
             x="0"
             y="0"
             inkscape:tiled-clone-of="#rect1107"
             xlink:href="#rect1107"
             transform="translate(-3.945312e-8,14.000001)"
             id="use1111"
             width="100%"
             height="100%" />
          <use
             x="0"
             y="0"
             inkscape:tiled-clone-of="#rect1107"
             xlink:href="#rect1107"
             transform="translate(-3.945312e-8,7.0000006)"
             id="use1113"
             width="100%"
             height="100%" />
          <use
             x="0"
             y="0"
             inkscape:tiled-clone-of="#rect1107"
             xlink:href="#rect1107"
             transform="translate(-3.945312e-8,21.000001)"
             id="use1115"
             width="100%"
             height="100%" />
          <use
             x="0"
             y="0"
             inkscape:tiled-clone-of="#rect1107"
             xlink:href="#rect1107"
             transform="translate(-3.945312e-8,28.000001)"
             id="use1117"
             width="100%"
             height="100%" />
          <use
             x="0"
             y="0"
             inkscape:tiled-clone-of="#rect1107"
             xlink:href="#rect1107"
             transform="translate(-3.945312e-8,35.000001)"
             id="use1119"
             width="100%"
             height="100%" />
          <use
             x="0"
             y="0"
             inkscape:tiled-clone-of="#rect1107"
             xlink:href="#rect1107"
             transform="translate(-3.945312e-8,42.000001)"
             id="use1121"
             width="100%"
             height="100%" />
          <use
             x="0"
             y="0"
             inkscape:tiled-clone-of="#rect1107"
             xlink:href="#rect1107"
             transform="translate(-3.945312e-8,49.000001)"
             id="use1123"
             width="100%"
             height="100%" />
          <use
             x="0"
             y="0"
             inkscape:tiled-clone-of="#rect1107"
             xlink:href="#rect1107"
             transform="translate(-3.945312e-8,56.000001)"
             id="use1125"
             width="100%"
             height="100%" />
          <use
             x="0"
             y="0"
             inkscape:tiled-clone-of="#rect1107"
             xlink:href="#rect1107"
             transform="translate(-3.945312e-8,63.000001)"
             id="use1127"
             width="100%"
             height="100%" />
          <use
             x="0"
             y="0"
             inkscape:tiled-clone-of="#rect1107"
             xlink:href="#rect1107"
             transform="translate(-3.945312e-8,70.000001)"
             id="use1129"
             width="100%"
             height="100%" />
          <use
             x="0"
             y="0"
             inkscape:tiled-clone-of="#rect1107"
             xlink:href="#rect1107"
             transform="translate(-3.945312e-8,77.000001)"
             id="use1131"
             width="100%"
             height="100%" />
          <use
             x="0"
             y="0"
             inkscape:tiled-clone-of="#rect1107"
             xlink:href="#rect1107"
             transform="translate(-3.945312e-8,84.000001)"
             id="use1133"
             width="100%"
             height="100%" />
          <use
             x="0"
             y="0"
             inkscape:tiled-clone-of="#rect1107"
             xlink:href="#rect1107"
             transform="translate(-3.945312e-8,91.000001)"
             id="use1135"
             width="100%"
             height="100%" />
          <use
             x="0"
             y="0"
             inkscape:tiled-clone-of="#rect1107"
             xlink:href="#rect1107"
             transform="translate(1.8636055e-4,98.000001)"
             id="use1137"
             width="100%"
             height="100%" />
        </g>
        <g
           id="g2715">
          <rect
             style="opacity:0.998;fill:#000000;fill-opacity:1;stroke:none;stroke-width:0.257401;stroke-miterlimit:4;stroke-dasharray:none;paint-order:markers fill stroke"
             id="rect1180"
             width="9.999814"
             height="1"
             x="60.980667"
             y="52.966663"
             inkscape:tile-cx="96.171282"
             inkscape:tile-cy="14.919001"
             inkscape:tile-w="11.564999"
             inkscape:tile-h="0.99999998"
             inkscape:tile-x0="90.388782"
             inkscape:tile-y0="14.419001" />
          <use
             x="0"
             y="0"
             inkscape:tiled-clone-of="#rect1107"
             xlink:href="#rect1107"
             transform="matrix(0.99999709,0,0,1,-99.999532,14)"
             id="use1182"
             width="100%"
             height="100%" />
          <use
             x="0"
             y="0"
             inkscape:tiled-clone-of="#rect1107"
             xlink:href="#rect1107"
             transform="matrix(0.99999709,0,0,1,-99.999532,7)"
             id="use1184"
             width="100%"
             height="100%" />
          <use
             x="0"
             y="0"
             inkscape:tiled-clone-of="#rect1107"
             xlink:href="#rect1107"
             transform="matrix(0.99999709,0,0,1,-99.999532,21)"
             id="use1186"
             width="100%"
             height="100%" />
          <use
             x="0"
             y="0"
             inkscape:tiled-clone-of="#rect1107"
             xlink:href="#rect1107"
             transform="matrix(0.99999709,0,0,1,-99.999532,28)"
             id="use1188"
             width="100%"
             height="100%" />
          <use
             x="0"
             y="0"
             inkscape:tiled-clone-of="#rect1107"
             xlink:href="#rect1107"
             transform="matrix(0.99999709,0,0,1,-99.999532,35)"
             id="use1190"
             width="100%"
             height="100%" />
          <use
             x="0"
             y="0"
             inkscape:tiled-clone-of="#rect1107"
             xlink:href="#rect1107"
             transform="matrix(0.99999709,0,0,1,-99.999532,42)"
             id="use1192"
             width="100%"
             height="100%" />
          <use
             x="0"
             y="0"
             inkscape:tiled-clone-of="#rect1107"
             xlink:href="#rect1107"
             transform="matrix(0.99999709,0,0,1,-99.999532,49)"
             id="use1194"
             width="100%"
             height="100%" />
          <use
             x="0"
             y="0"
             inkscape:tiled-clone-of="#rect1107"
             xlink:href="#rect1107"
             transform="matrix(0.99999709,0,0,1,-99.999532,56)"
             id="use1196"
             width="100%"
             height="100%" />
          <use
             x="0"
             y="0"
             inkscape:tiled-clone-of="#rect1107"
             xlink:href="#rect1107"
             transform="matrix(0.99999709,0,0,1,-99.999532,63)"
             id="use1198"
             width="100%"
             height="100%" />
          <use
             x="0"
             y="0"
             inkscape:tiled-clone-of="#rect1107"
             xlink:href="#rect1107"
             transform="matrix(0.99999709,0,0,1,-99.999532,0)"
             id="use1200"
             width="100%"
             height="100%" />
          <use
             x="0"
             y="0"
             inkscape:tiled-clone-of="#rect1107"
             xlink:href="#rect1107"
             transform="matrix(0.99999709,0,0,1,-99.999532,70)"
             id="use1202"
             width="100%"
             height="100%" />
          <use
             x="0"
             y="0"
             inkscape:tiled-clone-of="#rect1107"
             xlink:href="#rect1107"
             transform="matrix(0.99999709,0,0,1,-99.999532,77)"
             id="use1204"
             width="100%"
             height="100%" />
          <use
             x="0"
             y="0"
             inkscape:tiled-clone-of="#rect1107"
             xlink:href="#rect1107"
             transform="matrix(0.99999709,0,0,1,-99.999532,84)"
             id="use1206"
             width="100%"
             height="100%" />
          <use
             x="0"
             y="0"
             inkscape:tiled-clone-of="#rect1107"
             xlink:href="#rect1107"
             transform="matrix(0.99999709,0,0,1,-99.999317,91)"
             id="use1208"
             width="100%"
             height="100%" />
          <use
             x="0"
             y="0"
             inkscape:tiled-clone-of="#rect1107"
             xlink:href="#rect1107"
             transform="matrix(0.99999709,0,0,1,-99.999533,98)"
             id="use1208-6"
             width="100%"
             height="100%" />
        </g>
      </g>
      <g
         id="g2680">
        <g
           id="g2570">
          <g
             aria-label="9"
             id="use897"
             style="font-size:5px;line-height:1.25;-inkscape-font-specification:'sans-serif, Normal';stroke-width:0.264583"
             transform="translate(0,0.33759486)">
            <path
               d="m 151.55391,52.911785 q 0,0.476074 -0.10986,0.864258 -0.10743,0.388184 -0.32715,0.661621 -0.22217,0.27832 -0.55664,0.429688 -0.33448,0.151367 -0.78614,0.151367 -0.12695,0 -0.23925,-0.01465 -0.11231,-0.01221 -0.2002,-0.0415 v -0.466308 h 0.0244 q 0.0708,0.03662 0.20019,0.0708 0.12939,0.03174 0.28809,0.03174 0.53955,0 0.84472,-0.322266 0.30762,-0.324707 0.35645,-0.893554 -0.22705,0.136718 -0.42725,0.195312 -0.20019,0.05859 -0.43701,0.05859 -0.22461,0 -0.40771,-0.04395 -0.18067,-0.04395 -0.36377,-0.170898 -0.21485,-0.148926 -0.32471,-0.378418 -0.10742,-0.229492 -0.10742,-0.549316 0,-0.556641 0.36621,-0.905762 0.36621,-0.349121 0.89355,-0.349121 0.26367,0 0.48828,0.08301 0.22461,0.08057 0.39307,0.24414 0.20752,0.202637 0.31982,0.522461 0.11231,0.317383 0.11231,0.822754 z m -0.49316,-0.10498 q 0,-0.378418 -0.0781,-0.60791 -0.0781,-0.229493 -0.21484,-0.356446 -0.11475,-0.109863 -0.24659,-0.15625 -0.13183,-0.04883 -0.28564,-0.04883 -0.35156,0 -0.55664,0.219727 -0.20264,0.219726 -0.20264,0.617675 0,0.231934 0.0659,0.378418 0.0659,0.146485 0.22217,0.256348 0.10986,0.07568 0.2417,0.102539 0.13183,0.02441 0.29297,0.02441 0.19043,0 0.38574,-0.05127 0.19531,-0.05127 0.36621,-0.148926 0.002,-0.05127 0.005,-0.100098 0.005,-0.05127 0.005,-0.129394 z"
               id="path1700" />
          </g>
          <g
             aria-label="10"
             id="use899"
             style="font-size:5px;line-height:1.25;-inkscape-font-specification:'sans-serif, Normal';stroke-width:0.264583"
             transform="translate(-0.402834,0.10903596)">
            <path
               d="M 151.35127,62.174034 H 149.3835 V 61.80294 h 0.75684 v -2.436523 h -0.75684 v -0.332031 q 0.15381,0 0.32959,-0.02441 0.17578,-0.02686 0.26611,-0.07568 0.11231,-0.06104 0.17578,-0.153809 0.0659,-0.09521 0.0757,-0.253906 h 0.37842 v 3.276367 h 0.74218 z"
               id="path1703" />
            <path
               d="m 154.73262,60.355186 q 0,0.979004 -0.30762,1.437989 -0.30517,0.456543 -0.9497,0.456543 -0.6543,0 -0.95704,-0.463867 -0.30029,-0.463868 -0.30029,-1.425782 0,-0.969238 0.30518,-1.430664 0.30517,-0.463867 0.95215,-0.463867 0.65429,0 0.95459,0.471191 0.30273,0.46875 0.30273,1.418457 z m -0.64209,1.108399 q 0.0855,-0.197754 0.11475,-0.463867 0.0317,-0.268555 0.0317,-0.644532 0,-0.371093 -0.0317,-0.644531 -0.0293,-0.273437 -0.11719,-0.463867 -0.0854,-0.187988 -0.23438,-0.283203 -0.14648,-0.09522 -0.37841,-0.09522 -0.2295,0 -0.38086,0.09522 -0.14893,0.09521 -0.23682,0.288086 -0.083,0.180664 -0.11475,0.471191 -0.0293,0.290528 -0.0293,0.637207 0,0.38086 0.0268,0.637207 0.0269,0.256348 0.11475,0.458985 0.0806,0.190429 0.22705,0.290527 0.14893,0.100098 0.39307,0.100098 0.22949,0 0.38086,-0.09521 0.15136,-0.09522 0.23437,-0.288086 z"
               id="path1705" />
          </g>
          <g
             aria-label="11"
             id="use901"
             style="font-size:5px;line-height:1.25;-inkscape-font-specification:'sans-serif, Normal';stroke-width:0.264583"
             transform="translate(-0.402834,-0.10975564)">
            <path
               d="m 151.35127,69.400146 h -1.96777 v -0.371093 h 0.75684 v -2.436524 h -0.75684 v -0.332031 q 0.15381,0 0.32959,-0.02441 0.17578,-0.02686 0.26611,-0.07568 0.11231,-0.06103 0.17578,-0.153808 0.0659,-0.09521 0.0757,-0.253906 h 0.37842 v 3.276367 h 0.74218 z"
               id="path1708" />
            <path
               d="m 154.52998,69.400146 h -1.96777 v -0.371093 h 0.75684 v -2.436524 h -0.75684 v -0.332031 q 0.15381,0 0.32959,-0.02441 0.17578,-0.02686 0.26611,-0.07568 0.11231,-0.06103 0.17578,-0.153808 0.0659,-0.09521 0.0757,-0.253906 h 0.37842 v 3.276367 h 0.74218 z"
               id="path1710" />
          </g>
          <g
             aria-label="12"
             id="use903"
             style="font-size:5px;line-height:1.25;-inkscape-font-specification:'sans-serif, Normal';stroke-width:0.264583"
             transform="translate(-0.402834,-0.30413364)">
            <path
               d="m 151.35127,76.626266 h -1.96777 v -0.371093 h 0.75684 v -2.436524 h -0.75684 v -0.332031 q 0.15381,0 0.32959,-0.02441 0.17578,-0.02685 0.26611,-0.07568 0.11231,-0.06104 0.17578,-0.153808 0.0659,-0.09522 0.0757,-0.253906 h 0.37842 v 3.276367 h 0.74218 z"
               id="path1713" />
            <path
               d="m 154.7375,76.626266 h -2.46093 v -0.510253 q 0.25634,-0.219727 0.51269,-0.439454 0.25879,-0.219726 0.48096,-0.437011 0.46875,-0.454102 0.64209,-0.720215 0.17334,-0.268555 0.17334,-0.578613 0,-0.283204 -0.18799,-0.441895 -0.18555,-0.161133 -0.52002,-0.161133 -0.22217,0 -0.48096,0.07813 -0.25879,0.07813 -0.50537,0.239258 h -0.0244 v -0.5127 q 0.17334,-0.08545 0.46142,-0.15625 0.29053,-0.0708 0.56153,-0.0708 0.55908,0 0.87646,0.270996 0.31738,0.268555 0.31738,0.729981 0,0.207519 -0.0537,0.388183 -0.0513,0.178223 -0.15381,0.339356 -0.0952,0.151367 -0.2246,0.297851 -0.12696,0.146485 -0.31006,0.324707 -0.26123,0.256348 -0.53955,0.498047 -0.27832,0.239258 -0.52002,0.444336 h 1.95556 z"
               id="path1715" />
          </g>
          <g
             aria-label="13"
             id="use905"
             style="font-size:5px;line-height:1.25;-inkscape-font-specification:'sans-serif, Normal';stroke-width:0.264583"
             transform="translate(-0.402834,-0.56810214)">
            <path
               d="m 151.35127,83.852386 h -1.96777 v -0.371093 h 0.75684 v -2.436524 h -0.75684 v -0.332031 q 0.15381,0 0.32959,-0.02441 0.17578,-0.02685 0.26611,-0.07568 0.11231,-0.06104 0.17578,-0.153808 0.0659,-0.09521 0.0757,-0.253906 h 0.37842 v 3.276367 h 0.74218 z"
               id="path1718" />
            <path
               d="m 154.41768,82.101898 q 0.11719,0.104981 0.19287,0.263672 0.0757,0.158691 0.0757,0.410156 0,0.249024 -0.0903,0.456543 -0.0903,0.20752 -0.2539,0.361328 -0.18311,0.170899 -0.43213,0.253907 -0.24659,0.08057 -0.542,0.08057 -0.30273,0 -0.5957,-0.07324 -0.29297,-0.0708 -0.48096,-0.15625 V 83.18833 h 0.0366 q 0.20751,0.136719 0.48828,0.227051 0.28076,0.09033 0.54199,0.09033 0.15381,0 0.32715,-0.05127 0.17334,-0.05127 0.28076,-0.151367 0.1123,-0.107422 0.16601,-0.236816 0.0562,-0.129395 0.0562,-0.327149 0,-0.195312 -0.0635,-0.322265 -0.061,-0.129395 -0.1709,-0.202637 -0.10986,-0.07568 -0.26611,-0.102539 -0.15625,-0.0293 -0.33692,-0.0293 h -0.21972 v -0.405273 h 0.1709 q 0.37109,0 0.59082,-0.153809 0.22216,-0.15625 0.22216,-0.454102 0,-0.131836 -0.0562,-0.229492 -0.0561,-0.100097 -0.15625,-0.163574 -0.10498,-0.06348 -0.22461,-0.08789 -0.11963,-0.02441 -0.27099,-0.02441 -0.23194,0 -0.49317,0.08301 -0.26123,0.08301 -0.49316,0.234375 h -0.0244 v -0.510254 q 0.17334,-0.08545 0.46143,-0.15625 0.29053,-0.07324 0.56152,-0.07324 0.26612,0 0.46875,0.04883 0.20264,0.04883 0.36621,0.15625 0.17579,0.117188 0.26612,0.283203 0.0903,0.166016 0.0903,0.388184 0,0.302734 -0.21484,0.529785 -0.21241,0.224609 -0.50293,0.283203 v 0.03418 q 0.11718,0.01953 0.26855,0.08301 0.15137,0.06104 0.25635,0.153808 z"
               id="path1720" />
          </g>
          <g
             aria-label="14"
             id="use907"
             style="font-size:5px;line-height:1.25;-inkscape-font-specification:'sans-serif, Normal';stroke-width:0.264583"
             transform="translate(-0.402834,-0.78811564)">
            <path
               d="m 151.35127,91.078506 h -1.96777 v -0.371093 h 0.75684 v -2.436524 h -0.75684 v -0.332031 q 0.15381,0 0.32959,-0.02441 0.17578,-0.02685 0.26611,-0.07568 0.11231,-0.06103 0.17578,-0.153808 0.0659,-0.09521 0.0757,-0.253906 h 0.37842 v 3.276367 h 0.74218 z"
               id="path1723" />
            <path
               d="m 154.82051,90.055557 h -0.53955 v 1.022949 h -0.46875 v -1.022949 h -1.74072 v -0.561523 l 1.76025,-2.050781 h 0.44922 v 2.221679 h 0.53955 z m -1.0083,-0.390625 v -1.640625 l -1.40869,1.640625 z"
               id="path1725" />
          </g>
          <g
             aria-label="15"
             id="use909"
             style="font-size:5px;line-height:1.25;-inkscape-font-specification:'sans-serif, Normal';stroke-width:0.264583"
             transform="translate(-0.402834,-1.0520611)">
            <path
               d="m 151.35127,98.304611 h -1.96777 v -0.371094 h 0.75684 v -2.436523 h -0.75684 v -0.332031 q 0.15381,0 0.32959,-0.02441 0.17578,-0.02686 0.26611,-0.07568 0.11231,-0.06104 0.17578,-0.153808 0.0659,-0.09521 0.0757,-0.253907 h 0.37842 v 3.276367 h 0.74218 z"
               id="path1728" />
            <path
               d="m 154.70821,97.149826 q 0,0.253906 -0.0928,0.48584 -0.0928,0.231933 -0.2539,0.390625 -0.17578,0.170898 -0.41993,0.263672 -0.24169,0.09033 -0.56152,0.09033 -0.29785,0 -0.57373,-0.06348 -0.27588,-0.06104 -0.46631,-0.148926 v -0.515136 h 0.0342 q 0.2002,0.126953 0.46875,0.217285 0.26856,0.08789 0.52735,0.08789 0.17334,0 0.33447,-0.04883 0.16357,-0.04883 0.29053,-0.170898 0.10742,-0.104981 0.16113,-0.251465 0.0562,-0.146484 0.0562,-0.339355 0,-0.187989 -0.0659,-0.317383 -0.0635,-0.129395 -0.17822,-0.20752 -0.12695,-0.09277 -0.31006,-0.129394 -0.18066,-0.03906 -0.40527,-0.03906 -0.21485,0 -0.41504,0.0293 -0.19775,0.0293 -0.3418,0.05859 v -1.872559 h 2.1875 v 0.427246 h -1.71631 V 96.0634 q 0.10498,-0.0098 0.21485,-0.01465 0.10986,-0.0049 0.19043,-0.0049 0.29541,0 0.51758,0.05127 0.22216,0.04883 0.40771,0.175781 0.19531,0.134277 0.30273,0.346679 0.10743,0.212403 0.10743,0.532227 z"
               id="path1730" />
          </g>
          <g
             aria-label="16"
             id="use911"
             style="font-size:5px;line-height:1.25;-inkscape-font-specification:'sans-serif, Normal';stroke-width:0.264583"
             transform="translate(-0.402834,-1.2501006)">
            <path
               d="m 151.35127,105.53073 h -1.96777 v -0.37109 h 0.75684 v -2.43653 h -0.75684 v -0.33203 q 0.15381,0 0.32959,-0.0244 0.17578,-0.0269 0.26611,-0.0757 0.11231,-0.061 0.17578,-0.15381 0.0659,-0.0952 0.0757,-0.25391 h 0.37842 v 3.27637 h 0.74218 z"
               id="path1733" />
            <path
               d="m 154.79121,104.35153 q 0,0.5542 -0.36621,0.90576 -0.36377,0.34912 -0.89355,0.34912 -0.26856,0 -0.48828,-0.083 -0.21973,-0.083 -0.38819,-0.24659 -0.20996,-0.20263 -0.3247,-0.5371 -0.11231,-0.33448 -0.11231,-0.80567 0,-0.4834 0.10254,-0.85693 0.10498,-0.37354 0.33203,-0.66406 0.21485,-0.27588 0.5542,-0.42969 0.33936,-0.15625 0.79102,-0.15625 0.14404,0 0.2417,0.0122 0.0976,0.0122 0.19775,0.0439 v 0.46631 h -0.0244 q -0.0684,-0.0366 -0.20752,-0.0684 -0.13672,-0.0342 -0.28077,-0.0342 -0.5249,0 -0.8374,0.32959 -0.3125,0.32715 -0.36377,0.88623 0.20508,-0.12451 0.40283,-0.18799 0.2002,-0.0659 0.46143,-0.0659 0.23193,0 0.40772,0.0439 0.17822,0.0415 0.36377,0.1709 0.21484,0.14892 0.32226,0.37597 0.10986,0.22705 0.10986,0.55176 z m -0.4956,0.0195 q 0,-0.22705 -0.0684,-0.37597 -0.0659,-0.14893 -0.21973,-0.25879 -0.1123,-0.0781 -0.24902,-0.10254 -0.13672,-0.0244 -0.28565,-0.0244 -0.20751,0 -0.38574,0.0488 -0.17822,0.0488 -0.36621,0.15137 -0.005,0.0537 -0.007,0.10498 -0.002,0.0488 -0.002,0.12451 0,0.38574 0.0781,0.61035 0.0806,0.22217 0.21973,0.35157 0.1123,0.10742 0.2417,0.15869 0.13183,0.0488 0.28564,0.0488 0.35401,0 0.55664,-0.21485 0.20264,-0.21728 0.20264,-0.62256 z"
               id="path1735" />
          </g>
          <g
             aria-label="17"
             id="use913"
             style="font-size:5px;line-height:1.25;-inkscape-font-specification:'sans-serif, Normal';stroke-width:0.264583"
             transform="translate(-0.402834,-1.4664506)">
            <path
               d="m 151.35127,112.75685 h -1.96777 v -0.37109 h 0.75684 v -2.43653 h -0.75684 v -0.33203 q 0.15381,0 0.32959,-0.0244 0.17578,-0.0269 0.26611,-0.0757 0.11231,-0.061 0.17578,-0.15381 0.0659,-0.0952 0.0757,-0.25391 h 0.37842 v 3.27637 h 0.74218 z"
               id="path1738" />
            <path
               d="m 154.74727,109.66603 -1.64551,3.09082 h -0.52246 l 1.75049,-3.20801 h -2.07031 v -0.42724 h 2.48779 z"
               id="path1740" />
          </g>
          <g
             aria-label="18"
             id="use915"
             style="font-size:5px;line-height:1.25;-inkscape-font-specification:'sans-serif, Normal';stroke-width:0.264583"
             transform="translate(-0.402834,-1.6986456)">
            <path
               d="m 151.35127,119.98296 h -1.96777 v -0.37109 h 0.75684 v -2.43652 h -0.75684 v -0.33203 q 0.15381,0 0.32959,-0.0244 0.17578,-0.0268 0.26611,-0.0757 0.11231,-0.061 0.17578,-0.15381 0.0659,-0.0952 0.0757,-0.25391 h 0.37842 v 3.27637 h 0.74218 z"
               id="path1743" />
            <path
               d="m 154.76436,118.96978 q 0,0.47119 -0.36865,0.78369 -0.36621,0.3125 -0.92286,0.3125 -0.59082,0 -0.94238,-0.30517 -0.34912,-0.30518 -0.34912,-0.78125 0,-0.30274 0.17578,-0.54688 0.17578,-0.24658 0.49561,-0.39062 v -0.0147 q -0.29297,-0.15625 -0.43457,-0.3418 -0.13916,-0.18555 -0.13916,-0.46387 0,-0.41015 0.33691,-0.68359 0.33692,-0.27344 0.85693,-0.27344 0.54444,0 0.86915,0.26123 0.3247,0.26123 0.3247,0.66406 0,0.24659 -0.15381,0.48584 -0.1538,0.23682 -0.45166,0.3711 v 0.0147 q 0.3418,0.14648 0.52246,0.36132 0.18067,0.21485 0.18067,0.54688 z m -0.57861,-1.7749 q 0,-0.26123 -0.20264,-0.41504 -0.2002,-0.15625 -0.5127,-0.15625 -0.30761,0 -0.50537,0.14648 -0.19531,0.14649 -0.19531,0.39551 0,0.17578 0.0977,0.30518 0.10009,0.12695 0.30029,0.22705 0.0903,0.0439 0.25879,0.11474 0.1709,0.0708 0.33203,0.11719 0.2417,-0.16113 0.33447,-0.33447 0.0928,-0.17334 0.0928,-0.40039 z m 0.0757,1.82129 q 0,-0.22461 -0.1001,-0.35889 -0.0977,-0.13672 -0.38574,-0.27344 -0.11475,-0.0537 -0.25147,-0.1001 -0.13671,-0.0464 -0.36377,-0.12939 -0.21972,0.11963 -0.354,0.32471 -0.13184,0.20508 -0.13184,0.46386 0,0.32959 0.22706,0.54444 0.22705,0.21484 0.57617,0.21484 0.35644,0 0.56885,-0.1831 0.21484,-0.18311 0.21484,-0.50293 z"
               id="path1745" />
          </g>
          <g
             aria-label="19"
             id="use917"
             style="font-size:5px;line-height:1.25;-inkscape-font-specification:'sans-serif, Normal';stroke-width:0.264583"
             transform="translate(-0.402834,-1.9236006)">
            <path
               d="m 151.35127,127.20908 h -1.96777 v -0.37109 h 0.75684 v -2.43652 h -0.75684 v -0.33203 q 0.15381,0 0.32959,-0.0244 0.17578,-0.0268 0.26611,-0.0757 0.11231,-0.061 0.17578,-0.15381 0.0659,-0.0952 0.0757,-0.25391 h 0.37842 v 3.27637 h 0.74218 z"
               id="path1748" />
            <path
               d="m 154.73262,125.17295 q 0,0.47607 -0.10986,0.86426 -0.10742,0.38818 -0.32715,0.66162 -0.22217,0.27832 -0.55664,0.42969 -0.33447,0.15136 -0.78613,0.15136 -0.12696,0 -0.23926,-0.0146 -0.11231,-0.0122 -0.2002,-0.0415 v -0.46631 h 0.0244 q 0.0708,0.0366 0.20019,0.0708 0.1294,0.0317 0.28809,0.0317 0.53955,0 0.84472,-0.32226 0.30762,-0.32471 0.35645,-0.89356 -0.22705,0.13672 -0.42725,0.19531 -0.20019,0.0586 -0.43701,0.0586 -0.22461,0 -0.40771,-0.0439 -0.18067,-0.0439 -0.36377,-0.1709 -0.21485,-0.14892 -0.32471,-0.37841 -0.10742,-0.2295 -0.10742,-0.54932 0,-0.55664 0.36621,-0.90576 0.36621,-0.34912 0.89355,-0.34912 0.26368,0 0.48828,0.083 0.22461,0.0806 0.39307,0.24414 0.20752,0.20263 0.31983,0.52246 0.1123,0.31738 0.1123,0.82275 z m -0.49316,-0.10498 q 0,-0.37842 -0.0781,-0.60791 -0.0781,-0.22949 -0.21484,-0.35645 -0.11475,-0.10986 -0.24658,-0.15625 -0.13184,-0.0488 -0.28565,-0.0488 -0.35156,0 -0.55664,0.21972 -0.20264,0.21973 -0.20264,0.61768 0,0.23193 0.0659,0.37842 0.0659,0.14648 0.22217,0.25634 0.10986,0.0757 0.2417,0.10254 0.13183,0.0244 0.29297,0.0244 0.19043,0 0.38574,-0.0513 0.19531,-0.0513 0.36621,-0.14893 0.002,-0.0513 0.005,-0.1001 0.005,-0.0513 0.005,-0.12939 z"
               id="path1750" />
          </g>
          <g
             aria-label="20"
             id="use919"
             style="font-size:5px;line-height:1.25;-inkscape-font-specification:'sans-serif, Normal';stroke-width:0.264583"
             transform="translate(-0.117184,-2.1508906)">
            <path
               d="m 151.55879,134.4352 h -2.46094 v -0.51026 q 0.25635,-0.21972 0.5127,-0.43945 0.25879,-0.21973 0.48096,-0.43701 0.46875,-0.4541 0.64209,-0.72022 0.17334,-0.26855 0.17334,-0.57861 0,-0.2832 -0.18799,-0.4419 -0.18555,-0.16113 -0.52002,-0.16113 -0.22217,0 -0.48096,0.0781 -0.25879,0.0781 -0.50537,0.23925 h -0.0244 v -0.51269 q 0.17334,-0.0855 0.46142,-0.15625 0.29053,-0.0708 0.56153,-0.0708 0.55908,0 0.87646,0.27099 0.31738,0.26856 0.31738,0.72998 0,0.20752 -0.0537,0.38819 -0.0513,0.17822 -0.15381,0.33935 -0.0952,0.15137 -0.22461,0.29786 -0.12695,0.14648 -0.31005,0.3247 -0.26123,0.25635 -0.53955,0.49805 -0.27833,0.23926 -0.52002,0.44434 h 1.95556 z"
               id="path1753" />
            <path
               d="m 154.73262,132.61635 q 0,0.979 -0.30762,1.43799 -0.30517,0.45654 -0.9497,0.45654 -0.6543,0 -0.95704,-0.46387 -0.30029,-0.46386 -0.30029,-1.42578 0,-0.96924 0.30518,-1.43066 0.30517,-0.46387 0.95215,-0.46387 0.65429,0 0.95459,0.47119 0.30273,0.46875 0.30273,1.41846 z m -0.64209,1.1084 q 0.0855,-0.19776 0.11475,-0.46387 0.0317,-0.26856 0.0317,-0.64453 0,-0.3711 -0.0317,-0.64453 -0.0293,-0.27344 -0.11719,-0.46387 -0.0854,-0.18799 -0.23438,-0.2832 -0.14648,-0.0952 -0.37841,-0.0952 -0.2295,0 -0.38086,0.0952 -0.14893,0.0952 -0.23682,0.28808 -0.083,0.18067 -0.11475,0.47119 -0.0293,0.29053 -0.0293,0.63721 0,0.38086 0.0268,0.63721 0.0269,0.25635 0.11475,0.45898 0.0806,0.19043 0.22705,0.29053 0.14893,0.1001 0.39307,0.1001 0.22949,0 0.38086,-0.0952 0.15136,-0.0952 0.23437,-0.28808 z"
               id="path1755" />
          </g>
          <g
             aria-label="21"
             id="use921"
             style="font-size:5px;line-height:1.25;-inkscape-font-specification:'sans-serif, Normal';stroke-width:0.264583"
             transform="translate(-0.117184,-2.3391556)">
            <path
               d="m 151.55879,141.6613 h -2.46094 v -0.51025 q 0.25635,-0.21973 0.5127,-0.43946 0.25879,-0.21972 0.48096,-0.43701 0.46875,-0.4541 0.64209,-0.72021 0.17334,-0.26856 0.17334,-0.57862 0,-0.2832 -0.18799,-0.44189 -0.18555,-0.16113 -0.52002,-0.16113 -0.22217,0 -0.48096,0.0781 -0.25879,0.0781 -0.50537,0.23926 h -0.0244 v -0.5127 q 0.17334,-0.0855 0.46142,-0.15625 0.29053,-0.0708 0.56153,-0.0708 0.55908,0 0.87646,0.271 0.31738,0.26855 0.31738,0.72998 0,0.20752 -0.0537,0.38818 -0.0513,0.17823 -0.15381,0.33936 -0.0952,0.15137 -0.22461,0.29785 -0.12695,0.14648 -0.31005,0.32471 -0.26123,0.25635 -0.53955,0.49804 -0.27833,0.23926 -0.52002,0.44434 h 1.95556 z"
               id="path1758" />
            <path
               d="m 154.52998,141.6613 h -1.96777 v -0.37109 h 0.75684 v -2.43653 h -0.75684 v -0.33203 q 0.15381,0 0.32959,-0.0244 0.17578,-0.0269 0.26611,-0.0757 0.11231,-0.061 0.17578,-0.1538 0.0659,-0.0952 0.0757,-0.25391 h 0.37842 v 3.27637 h 0.74218 z"
               id="path1760" />
          </g>
          <g
             aria-label="22"
             id="use923"
             style="font-size:5px;line-height:1.25;-inkscape-font-specification:'sans-serif, Normal';stroke-width:0.264583"
             transform="translate(-0.117184,-2.5652756)">
            <path
               d="m 151.55879,148.88742 h -2.46094 v -0.51025 q 0.25635,-0.21973 0.5127,-0.43946 0.25879,-0.21972 0.48096,-0.43701 0.46875,-0.4541 0.64209,-0.72021 0.17334,-0.26856 0.17334,-0.57862 0,-0.2832 -0.18799,-0.44189 -0.18555,-0.16113 -0.52002,-0.16113 -0.22217,0 -0.48096,0.0781 -0.25879,0.0781 -0.50537,0.23926 h -0.0244 v -0.5127 q 0.17334,-0.0854 0.46142,-0.15625 0.29053,-0.0708 0.56153,-0.0708 0.55908,0 0.87646,0.271 0.31738,0.26855 0.31738,0.72998 0,0.20752 -0.0537,0.38818 -0.0513,0.17823 -0.15381,0.33936 -0.0952,0.15137 -0.22461,0.29785 -0.12695,0.14648 -0.31005,0.32471 -0.26123,0.25635 -0.53955,0.49804 -0.27833,0.23926 -0.52002,0.44434 h 1.95556 z"
               id="path1763" />
            <path
               d="m 154.7375,148.88742 h -2.46093 v -0.51025 q 0.25634,-0.21973 0.51269,-0.43946 0.25879,-0.21972 0.48096,-0.43701 0.46875,-0.4541 0.64209,-0.72021 0.17334,-0.26856 0.17334,-0.57862 0,-0.2832 -0.18799,-0.44189 -0.18555,-0.16113 -0.52002,-0.16113 -0.22217,0 -0.48096,0.0781 -0.25879,0.0781 -0.50537,0.23926 h -0.0244 v -0.5127 q 0.17334,-0.0854 0.46142,-0.15625 0.29053,-0.0708 0.56153,-0.0708 0.55908,0 0.87646,0.271 0.31738,0.26855 0.31738,0.72998 0,0.20752 -0.0537,0.38818 -0.0513,0.17823 -0.15381,0.33936 -0.0952,0.15137 -0.2246,0.29785 -0.12696,0.14648 -0.31006,0.32471 -0.26123,0.25635 -0.53955,0.49804 -0.27832,0.23926 -0.52002,0.44434 h 1.95556 z"
               id="path1765" />
          </g>
          <g
             aria-label="GND"
             id="use925"
             style="font-size:5px;line-height:1.25;-inkscape-font-specification:'sans-serif, Normal';stroke-width:0.264583"
             transform="translate(-0.004854,-2.8316906)">
            <path
               d="m 152.22527,155.84499 q -0.29786,0.13671 -0.65186,0.23925 -0.35156,0.1001 -0.68115,0.1001 -0.42481,0 -0.77881,-0.11719 -0.354,-0.11718 -0.60303,-0.35156 -0.25146,-0.23681 -0.38818,-0.59082 -0.13672,-0.35644 -0.13672,-0.83252 0,-0.87158 0.50781,-1.37451 0.51026,-0.50537 1.39893,-0.50537 0.31006,0 0.63232,0.0757 0.32471,0.0732 0.69824,0.25147 v 0.57373 h -0.0439 q -0.0757,-0.0586 -0.21973,-0.15381 -0.14404,-0.0952 -0.2832,-0.15869 -0.16846,-0.0757 -0.3833,-0.12451 -0.2124,-0.0513 -0.4834,-0.0513 -0.61035,0 -0.9668,0.39306 -0.354,0.39063 -0.354,1.05957 0,0.70557 0.37109,1.09864 0.3711,0.39062 1.01075,0.39062 0.23437,0 0.4663,-0.0464 0.23438,-0.0464 0.41016,-0.11962 v -0.89112 h -0.97412 v -0.4248 h 1.45264 z"
               id="path1768" />
            <path
               d="m 155.84343,156.11354 h -0.59814 l -1.72364,-3.25195 v 3.25195 h -0.45166 v -3.63525 h 0.74951 l 1.57227,2.96875 v -2.96875 h 0.45166 z"
               id="path1770" />
            <path
               d="m 159.88152,154.29958 q 0,0.4956 -0.21729,0.89843 -0.21484,0.40284 -0.57373,0.625 -0.24902,0.15381 -0.55664,0.22217 -0.30518,0.0684 -0.80566,0.0684 h -0.91797 v -3.63525 h 0.9082 q 0.53223,0 0.84473,0.0781 0.31494,0.0757 0.53222,0.20996 0.3711,0.23194 0.57862,0.61768 0.20752,0.38574 0.20752,0.91553 z m -0.50538,-0.007 q 0,-0.42724 -0.14892,-0.72021 -0.14893,-0.29297 -0.44434,-0.46143 -0.21484,-0.12207 -0.45654,-0.16846 -0.2417,-0.0488 -0.57861,-0.0488 h -0.45411 v 2.80517 h 0.45411 q 0.34912,0 0.60791,-0.0513 0.26123,-0.0513 0.47851,-0.19043 0.271,-0.17334 0.40528,-0.45654 0.13671,-0.2832 0.13671,-0.70801 z"
               id="path1772" />
          </g>
        </g>
        <g
           id="g2523">
          <g
             aria-label="0"
             id="text1049"
             style="font-size:5px;line-height:1.25;-inkscape-font-specification:'sans-serif, Normal';stroke-width:0.264583"
             transform="translate(-0.270997,0.335152)">
            <path
               d="m 75.766312,53.12907 q 0,0.979004 -0.307618,1.437989 -0.305175,0.456543 -0.949707,0.456543 -0.654296,0 -0.957031,-0.463868 -0.300293,-0.463867 -0.300293,-1.425781 0,-0.969238 0.305176,-1.430664 0.305176,-0.463867 0.952148,-0.463867 0.654297,0 0.95459,0.471191 0.302735,0.46875 0.302735,1.418457 z m -0.64209,1.108399 q 0.08545,-0.197754 0.114746,-0.463867 0.03174,-0.268555 0.03174,-0.644532 0,-0.371093 -0.03174,-0.644531 -0.0293,-0.273437 -0.117188,-0.463867 -0.08545,-0.187988 -0.234375,-0.283203 -0.146484,-0.09521 -0.378418,-0.09521 -0.229492,0 -0.380859,0.09521 -0.148926,0.09522 -0.236816,0.288086 -0.08301,0.180664 -0.114746,0.471191 -0.0293,0.290527 -0.0293,0.637207 0,0.380859 0.02685,0.637207 0.02686,0.256348 0.114746,0.458985 0.08057,0.190429 0.227051,0.290527 0.148926,0.100098 0.393066,0.100098 0.229493,0 0.38086,-0.09522 0.151367,-0.09521 0.234375,-0.288086 z"
               id="path1595" />
          </g>
          <g
             aria-label="1"
             id="text1053"
             style="font-size:5px;line-height:1.25;-inkscape-font-specification:'sans-serif, Normal';stroke-width:0.264583"
             transform="translate(-0.615235,0.11635648)">
            <path
               d="M 75.563675,62.174034 H 73.595901 V 61.80294 h 0.756836 v -2.436523 h -0.756836 v -0.332031 q 0.153809,0 0.32959,-0.02441 0.175782,-0.02686 0.266114,-0.07568 0.112304,-0.06104 0.175781,-0.153809 0.06592,-0.09521 0.07568,-0.253906 h 0.378418 v 3.276367 h 0.742188 z"
               id="path1598" />
          </g>
          <g
             aria-label="2"
             id="text1057"
             style="font-size:5px;line-height:1.25;-inkscape-font-specification:'sans-serif, Normal';stroke-width:0.264583"
             transform="translate(-0.329591,-0.07801422)">
            <path
               d="m 75.771194,69.400146 h -2.460937 v -0.510253 q 0.256348,-0.219727 0.512695,-0.439454 0.258789,-0.219726 0.480957,-0.437011 0.46875,-0.454102 0.64209,-0.720215 0.17334,-0.268555 0.17334,-0.578613 0,-0.283204 -0.187988,-0.441895 -0.185547,-0.161133 -0.52002,-0.161133 -0.222168,0 -0.480957,0.07813 -0.258789,0.07813 -0.505371,0.239258 h -0.02441 v -0.5127 q 0.17334,-0.08545 0.461426,-0.15625 0.290527,-0.0708 0.561523,-0.0708 0.559082,0 0.876465,0.270996 0.317383,0.268555 0.317383,0.729981 0,0.207519 -0.05371,0.388183 -0.05127,0.178223 -0.153809,0.339356 -0.09521,0.151367 -0.224609,0.297851 -0.126953,0.146485 -0.310059,0.324707 -0.26123,0.256348 -0.53955,0.498047 -0.278321,0.239258 -0.52002,0.444336 h 1.955566 z"
               id="path1601" />
          </g>
          <g
             aria-label="3"
             id="text1061"
             style="font-size:5px;line-height:1.25;-inkscape-font-specification:'sans-serif, Normal';stroke-width:0.264583"
             transform="translate(-0.344237,-0.34198272)">
            <path
               d="m 75.45137,74.875778 q 0.117188,0.104981 0.192871,0.263672 0.07568,0.158691 0.07568,0.410156 0,0.249024 -0.09033,0.456543 -0.09033,0.20752 -0.253906,0.361328 -0.183106,0.170899 -0.432129,0.253907 -0.246582,0.08057 -0.541992,0.08057 -0.302735,0 -0.595704,-0.07324 -0.292968,-0.0708 -0.480957,-0.15625 V 75.96221 h 0.03662 q 0.20752,0.136719 0.488282,0.227051 0.280761,0.09033 0.541992,0.09033 0.153809,0 0.327148,-0.05127 0.17334,-0.05127 0.280762,-0.151367 0.112305,-0.107422 0.166016,-0.236816 0.05615,-0.129395 0.05615,-0.327149 0,-0.195312 -0.06348,-0.322265 -0.06104,-0.129395 -0.170898,-0.202637 -0.109863,-0.07568 -0.266113,-0.102539 -0.15625,-0.0293 -0.336914,-0.0293 h -0.219727 v -0.405273 h 0.170899 q 0.371093,0 0.59082,-0.153809 0.222168,-0.15625 0.222168,-0.454102 0,-0.131836 -0.05615,-0.229492 -0.05615,-0.100097 -0.15625,-0.163574 -0.104981,-0.06348 -0.22461,-0.08789 -0.119629,-0.02441 -0.270996,-0.02441 -0.231934,0 -0.493164,0.08301 -0.26123,0.08301 -0.493164,0.234375 h -0.02441 v -0.510254 q 0.17334,-0.08545 0.461426,-0.15625 0.290527,-0.07324 0.561523,-0.07324 0.266113,0 0.46875,0.04883 0.202637,0.04883 0.366211,0.15625 0.175781,0.117188 0.266113,0.283203 0.09033,0.166016 0.09033,0.388184 0,0.302734 -0.214843,0.529785 -0.212403,0.224609 -0.50293,0.283203 v 0.03418 q 0.117187,0.01953 0.268555,0.08301 0.151367,0.06104 0.256347,0.153808 z"
               id="path1604" />
          </g>
          <g
             aria-label="4"
             id="text1065"
             style="font-size:5px;line-height:1.25;-inkscape-font-specification:'sans-serif, Normal';stroke-width:0.264583"
             transform="translate(-0.124513,-0.56809572)">
            <path
               d="m 75.854202,82.829437 h -0.539551 v 1.022949 h -0.46875 v -1.022949 h -1.740722 v -0.561523 l 1.760254,-2.050781 h 0.449218 v 2.221679 h 0.539551 z m -1.008301,-0.390625 v -1.640625 l -1.408691,1.640625 z"
               id="path1607" />
          </g>
          <g
             aria-label="5"
             id="text1069"
             style="font-size:5px;line-height:1.25;-inkscape-font-specification:'sans-serif, Normal';stroke-width:0.264583"
             transform="translate(-0.393072,-0.83205322)">
            <path
               d="m 75.741898,89.923721 q 0,0.253907 -0.09277,0.48584 -0.09277,0.231934 -0.253906,0.390625 -0.175781,0.170899 -0.419922,0.263672 -0.241699,0.09033 -0.561523,0.09033 -0.297852,0 -0.573731,-0.06348 -0.275879,-0.06104 -0.466308,-0.148926 v -0.515137 h 0.03418 q 0.200196,0.126953 0.46875,0.217285 0.268555,0.08789 0.527344,0.08789 0.17334,0 0.334473,-0.04883 0.163574,-0.04883 0.290527,-0.170899 0.107422,-0.10498 0.161133,-0.251465 0.05615,-0.146484 0.05615,-0.339355 0,-0.187988 -0.06592,-0.317383 -0.06348,-0.129394 -0.178223,-0.207519 -0.126953,-0.09277 -0.310058,-0.129395 -0.180664,-0.03906 -0.405274,-0.03906 -0.214843,0 -0.415039,0.0293 -0.197754,0.0293 -0.341796,0.05859 v -1.872558 h 2.1875 v 0.427246 h -1.716309 v 0.966797 q 0.10498,-0.0098 0.214844,-0.01465 0.109863,-0.0049 0.190429,-0.0049 0.295411,0 0.517578,0.05127 0.222168,0.04883 0.407715,0.175781 0.195313,0.134277 0.302735,0.34668 0.107422,0.212402 0.107422,0.532226 z"
               id="path1610" />
          </g>
          <g
             aria-label="6"
             id="text1073"
             style="font-size:5px;line-height:1.25;-inkscape-font-specification:'sans-serif, Normal';stroke-width:0.264583"
             transform="translate(-0.270997,-1.0239817)">
            <path
               d="m 75.824905,97.125412 q 0,0.554199 -0.366211,0.905762 -0.363769,0.349121 -0.893554,0.349121 -0.268555,0 -0.488281,-0.08301 -0.219727,-0.08301 -0.388184,-0.246582 -0.209961,-0.202637 -0.324707,-0.537109 -0.112305,-0.334473 -0.112305,-0.805664 0,-0.483399 0.102539,-0.856934 0.104981,-0.373535 0.332032,-0.664063 0.214843,-0.275878 0.554199,-0.429687 0.339355,-0.15625 0.791015,-0.15625 0.144043,0 0.2417,0.01221 0.09766,0.01221 0.197753,0.04395 v 0.466309 h -0.02441 q -0.06836,-0.03662 -0.207519,-0.06836 -0.136719,-0.03418 -0.280762,-0.03418 -0.524902,0 -0.837402,0.32959 -0.3125,0.327148 -0.36377,0.88623 0.205078,-0.124512 0.402832,-0.187988 0.200196,-0.06592 0.461426,-0.06592 0.231934,0 0.407715,0.04395 0.178223,0.0415 0.363769,0.170899 0.214844,0.148925 0.322266,0.375976 0.109863,0.227051 0.109863,0.551758 z m -0.495605,0.01953 q 0,-0.227051 -0.06836,-0.375976 -0.06592,-0.148926 -0.219727,-0.258789 -0.112305,-0.07813 -0.249023,-0.102539 -0.136719,-0.02442 -0.285645,-0.02442 -0.20752,0 -0.385742,0.04883 -0.178223,0.04883 -0.366211,0.151367 -0.0049,0.05371 -0.0073,0.10498 -0.0024,0.04883 -0.0024,0.124512 0,0.385742 0.07813,0.610352 0.08057,0.222168 0.219727,0.351562 0.112305,0.107422 0.241699,0.158691 0.131836,0.04883 0.285645,0.04883 0.354003,0 0.55664,-0.214844 0.202637,-0.217285 0.202637,-0.622559 z"
               id="path1613" />
          </g>
          <g
             aria-label="7"
             id="text1077"
             style="font-size:5px;line-height:1.25;-inkscape-font-specification:'sans-serif, Normal';stroke-width:0.264583"
             transform="translate(-0.312501,-1.2464412)">
            <path
               d="m 75.78096,102.43991 -1.645508,3.09082 h -0.522461 l 1.750489,-3.20801 h -2.070313 v -0.42724 h 2.487793 z"
               id="path1616" />
          </g>
          <g
             aria-label="8"
             id="text1081"
             style="font-size:5px;line-height:1.25;-inkscape-font-specification:'sans-serif, Normal';stroke-width:0.264583"
             transform="translate(-0.234376,-1.4725862)">
            <path
               d="m 75.79805,111.74367 q 0,0.47119 -0.368652,0.78369 -0.366211,0.3125 -0.922852,0.3125 -0.59082,0 -0.942383,-0.30518 -0.349121,-0.30517 -0.349121,-0.78125 0,-0.30273 0.175781,-0.54687 0.175782,-0.24658 0.495606,-0.39063 v -0.0146 q -0.292969,-0.15625 -0.43457,-0.34179 -0.139161,-0.18555 -0.139161,-0.46387 0,-0.41016 0.336914,-0.68359 0.336914,-0.27344 0.856934,-0.27344 0.544434,0 0.869141,0.26123 0.324707,0.26123 0.324707,0.66406 0,0.24658 -0.153809,0.48584 -0.153809,0.23682 -0.45166,0.3711 v 0.0146 q 0.341797,0.14649 0.522461,0.36133 0.180664,0.21485 0.180664,0.54688 z m -0.578613,-1.7749 q 0,-0.26124 -0.202637,-0.41504 -0.200195,-0.15625 -0.512695,-0.15625 -0.307618,0 -0.505371,0.14648 -0.195313,0.14648 -0.195313,0.39551 0,0.17578 0.09766,0.30517 0.100098,0.12696 0.300293,0.22705 0.09033,0.044 0.258789,0.11475 0.170899,0.0708 0.332032,0.11719 0.241699,-0.16113 0.334472,-0.33447 0.09277,-0.17334 0.09277,-0.40039 z m 0.07568,1.82128 q 0,-0.22461 -0.100097,-0.35888 -0.09766,-0.13672 -0.385743,-0.27344 -0.114746,-0.0537 -0.251464,-0.1001 -0.136719,-0.0464 -0.36377,-0.12939 -0.219727,0.11963 -0.354004,0.3247 -0.131836,0.20508 -0.131836,0.46387 0,0.32959 0.227051,0.54444 0.227051,0.21484 0.576172,0.21484 0.356445,0 0.568847,-0.18311 0.214844,-0.1831 0.214844,-0.50293 z"
               id="path1619" />
          </g>
          <g
             aria-label="VDD33"
             id="text1085"
             style="font-size:5px;line-height:1.25;-inkscape-font-specification:'sans-serif, Normal';stroke-width:0.264583"
             transform="translate(0,-1.6986662)">
            <path
               d="m 76.271683,116.34771 -1.323242,3.63525 h -0.644532 l -1.323242,-3.63525 h 0.517578 l 1.140137,3.19824 1.140137,-3.19824 z"
               id="path1622" />
            <path
               d="m 79.89473,118.169 q 0,0.4956 -0.217286,0.89844 -0.214843,0.40283 -0.57373,0.625 -0.249023,0.1538 -0.556641,0.22216 -0.305175,0.0684 -0.805664,0.0684 h -0.917968 v -3.63525 h 0.908203 q 0.532226,0 0.844726,0.0781 0.314942,0.0757 0.532227,0.20997 0.371094,0.23193 0.578613,0.61767 0.20752,0.38574 0.20752,0.91553 z m -0.505371,-0.007 q 0,-0.42724 -0.148926,-0.72021 -0.148926,-0.29297 -0.444336,-0.46143 -0.214844,-0.12207 -0.456543,-0.16845 -0.241699,-0.0488 -0.578613,-0.0488 h -0.454102 v 2.80517 h 0.454102 q 0.349121,0 0.60791,-0.0513 0.26123,-0.0513 0.478515,-0.19042 0.270996,-0.17334 0.405274,-0.45655 0.136719,-0.2832 0.136719,-0.70801 z"
               id="path1624" />
            <path
               d="m 83.747269,118.169 q 0,0.4956 -0.217285,0.89844 -0.214844,0.40283 -0.573731,0.625 -0.249023,0.1538 -0.556641,0.22216 -0.305175,0.0684 -0.805664,0.0684 H 80.67598 v -3.63525 h 0.908203 q 0.532226,0 0.844726,0.0781 0.314942,0.0757 0.532227,0.20997 0.371094,0.23193 0.578613,0.61767 0.20752,0.38574 0.20752,0.91553 z m -0.505371,-0.007 q 0,-0.42724 -0.148926,-0.72021 -0.148926,-0.29297 -0.444336,-0.46143 -0.214844,-0.12207 -0.456543,-0.16845 -0.241699,-0.0488 -0.578613,-0.0488 h -0.454102 v 2.80517 h 0.454102 q 0.349121,0 0.60791,-0.0513 0.26123,-0.0513 0.478515,-0.19042 0.270996,-0.17334 0.405274,-0.45655 0.136719,-0.2832 0.136719,-0.70801 z"
               id="path1626" />
            <path
               d="m 86.574417,118.23248 q 0.117188,0.10498 0.192871,0.26367 0.07568,0.15869 0.07568,0.41015 0,0.24903 -0.09033,0.45655 -0.09033,0.20752 -0.253906,0.36132 -0.183106,0.1709 -0.432129,0.25391 -0.246582,0.0806 -0.541993,0.0806 -0.302734,0 -0.595703,-0.0733 -0.292968,-0.0708 -0.480957,-0.15625 v -0.51025 h 0.03662 q 0.20752,0.13672 0.488282,0.22705 0.280761,0.0903 0.541992,0.0903 0.153808,0 0.327148,-0.0513 0.17334,-0.0513 0.280762,-0.15136 0.112305,-0.10742 0.166016,-0.23682 0.05615,-0.12939 0.05615,-0.32715 0,-0.19531 -0.06348,-0.32226 -0.06104,-0.1294 -0.170898,-0.20264 -0.109863,-0.0757 -0.266113,-0.10254 -0.15625,-0.0293 -0.336914,-0.0293 h -0.219727 v -0.40527 h 0.170898 q 0.371094,0 0.590821,-0.15381 0.222168,-0.15625 0.222168,-0.4541 0,-0.13184 -0.05615,-0.22949 -0.05615,-0.1001 -0.15625,-0.16358 -0.10498,-0.0635 -0.224609,-0.0879 -0.119629,-0.0244 -0.270996,-0.0244 -0.231934,0 -0.493164,0.083 -0.261231,0.083 -0.493164,0.23437 h -0.02441 v -0.51025 q 0.17334,-0.0854 0.461426,-0.15625 0.290527,-0.0732 0.561523,-0.0732 0.266113,0 0.46875,0.0488 0.202637,0.0488 0.366211,0.15625 0.175781,0.11719 0.266113,0.28321 0.09033,0.16601 0.09033,0.38818 0,0.30274 -0.214844,0.52979 -0.212402,0.22461 -0.502929,0.2832 v 0.0342 q 0.117187,0.0195 0.268554,0.083 0.151368,0.061 0.256348,0.15381 z"
               id="path1628" />
            <path
               d="m 89.753128,118.23248 q 0.117188,0.10498 0.192871,0.26367 0.07568,0.15869 0.07568,0.41015 0,0.24903 -0.09033,0.45655 -0.09033,0.20752 -0.253907,0.36132 -0.183105,0.1709 -0.432128,0.25391 -0.246582,0.0806 -0.541993,0.0806 -0.302734,0 -0.595703,-0.0733 -0.292969,-0.0708 -0.480957,-0.15625 v -0.51025 h 0.03662 q 0.20752,0.13672 0.488282,0.22705 0.280761,0.0903 0.541992,0.0903 0.153808,0 0.327148,-0.0513 0.17334,-0.0513 0.280762,-0.15136 0.112305,-0.10742 0.166016,-0.23682 0.05615,-0.12939 0.05615,-0.32715 0,-0.19531 -0.06348,-0.32226 -0.06104,-0.1294 -0.170898,-0.20264 -0.109863,-0.0757 -0.266113,-0.10254 -0.15625,-0.0293 -0.336914,-0.0293 h -0.219727 v -0.40527 h 0.170898 q 0.371094,0 0.590821,-0.15381 0.222168,-0.15625 0.222168,-0.4541 0,-0.13184 -0.05615,-0.22949 -0.05615,-0.1001 -0.15625,-0.16358 -0.10498,-0.0635 -0.224609,-0.0879 -0.119629,-0.0244 -0.270996,-0.0244 -0.231934,0 -0.493164,0.083 -0.261231,0.083 -0.493164,0.23437 h -0.02441 v -0.51025 q 0.17334,-0.0854 0.461425,-0.15625 0.290528,-0.0732 0.561524,-0.0732 0.266113,0 0.46875,0.0488 0.202637,0.0488 0.366211,0.15625 0.175781,0.11719 0.266113,0.28321 0.09033,0.16601 0.09033,0.38818 0,0.30274 -0.214844,0.52979 -0.212402,0.22461 -0.502929,0.2832 v 0.0342 q 0.117187,0.0195 0.268554,0.083 0.151368,0.061 0.256348,0.15381 z"
               id="path1630" />
          </g>
          <g
             aria-label="V_USB"
             id="text1089"
             style="font-size:5px;line-height:1.25;-inkscape-font-specification:'sans-serif, Normal';stroke-width:0.264583"
             transform="translate(0,-2.2580412)">
            <path
               d="m 76.271683,123.57383 -1.323242,3.63525 h -0.644532 l -1.323242,-3.63525 h 0.517578 l 1.140137,3.19824 1.140137,-3.19824 z"
               id="path1633" />
            <path
               d="m 79.523636,127.94151 h -3.198242 v -0.29297 h 3.198242 z"
               id="path1635" />
            <path
               d="m 82.738968,125.74912 q 0,0.39551 -0.08789,0.69092 -0.08545,0.29297 -0.283203,0.48828 -0.187988,0.18555 -0.439453,0.271 -0.251465,0.0854 -0.585937,0.0854 -0.341797,0 -0.595704,-0.0903 -0.253906,-0.0903 -0.427246,-0.26612 -0.197754,-0.20019 -0.285644,-0.4834 -0.08545,-0.2832 -0.08545,-0.6958 v -2.17529 h 0.483398 v 2.19971 q 0,0.29541 0.03906,0.46631 0.0415,0.17089 0.136719,0.31005 0.107422,0.1587 0.290528,0.23926 0.185546,0.0806 0.444336,0.0806 0.26123,0 0.444335,-0.0781 0.183106,-0.0806 0.292969,-0.2417 0.09522,-0.13916 0.134278,-0.31738 0.0415,-0.18066 0.0415,-0.44678 v -2.21191 h 0.483399 z"
               id="path1637" />
            <path
               d="m 86.303421,126.17149 q 0,0.2124 -0.100098,0.41992 -0.09766,0.20752 -0.275879,0.35156 -0.195312,0.15625 -0.456543,0.24414 -0.258789,0.0879 -0.625,0.0879 -0.393066,0 -0.708007,-0.0732 -0.3125,-0.0732 -0.637207,-0.21729 v -0.60546 h 0.03418 q 0.275879,0.22949 0.637207,0.354 0.361328,0.12451 0.678711,0.12451 0.449219,0 0.698242,-0.16846 0.251465,-0.16845 0.251465,-0.44921 0,-0.2417 -0.119629,-0.35645 -0.117187,-0.11475 -0.358886,-0.17822 -0.183106,-0.0488 -0.39795,-0.0806 -0.212402,-0.0317 -0.45166,-0.0806 -0.483398,-0.10253 -0.717773,-0.34912 -0.231934,-0.24902 -0.231934,-0.64697 0,-0.45654 0.385742,-0.74707 0.385743,-0.29297 0.979004,-0.29297 0.383301,0 0.703125,0.0732 0.319825,0.0733 0.566407,0.18067 v 0.57129 h -0.03418 q -0.20752,-0.17578 -0.546875,-0.29053 -0.336914,-0.11719 -0.690918,-0.11719 -0.388184,0 -0.625,0.16113 -0.234375,0.16114 -0.234375,0.41504 0,0.22705 0.117187,0.35645 0.117188,0.12939 0.412598,0.19775 0.15625,0.0342 0.444336,0.083 0.288086,0.0488 0.488281,0.1001 0.405274,0.10742 0.610352,0.32471 0.205078,0.21728 0.205078,0.60791 z"
               id="path1639" />
            <path
               d="m 89.821487,126.09092 q 0,0.271 -0.102539,0.47852 -0.102539,0.20751 -0.275879,0.34179 -0.205078,0.16113 -0.45166,0.22949 -0.24414,0.0684 -0.622558,0.0684 h -1.289063 v -3.63525 h 1.07666 q 0.39795,0 0.595703,0.0293 0.197754,0.0293 0.378418,0.12207 0.200196,0.10498 0.290528,0.27099 0.09033,0.16358 0.09033,0.39307 0,0.25879 -0.131836,0.44189 -0.131836,0.18067 -0.351563,0.29053 v 0.0195 q 0.368653,0.0757 0.581055,0.32471 0.212402,0.24658 0.212402,0.625 z m -0.812988,-1.63818 q 0,-0.13184 -0.04394,-0.22217 -0.04395,-0.0903 -0.141602,-0.14649 -0.114746,-0.0659 -0.27832,-0.0806 -0.163574,-0.0171 -0.405273,-0.0171 h -0.576172 v 1.0498 h 0.625 q 0.22705,0 0.361328,-0.022 0.134277,-0.0244 0.249023,-0.0977 0.114746,-0.0732 0.161133,-0.18799 0.04883,-0.11718 0.04883,-0.27587 z m 0.310059,1.65771 q 0,-0.21973 -0.06592,-0.34912 -0.06592,-0.12939 -0.239258,-0.21973 -0.117188,-0.061 -0.285645,-0.0781 -0.166015,-0.0195 -0.405273,-0.0195 h -0.759277 v 1.35254 h 0.639648 q 0.317383,0 0.52002,-0.0317 0.202636,-0.0342 0.332031,-0.12207 0.136719,-0.0952 0.200195,-0.21729 0.06348,-0.12207 0.06348,-0.31494 z"
               id="path1641" />
          </g>
          <g
             aria-label="CHIP_EN"
             id="text1093"
             style="font-size:5px;line-height:1.25;-inkscape-font-specification:'sans-serif, Normal';stroke-width:0.264583"
             transform="translate(-0.217286,-2.4841562)">
            <path
               d="m 76.213089,134.17152 q -0.134277,0.0586 -0.244141,0.10987 -0.107422,0.0513 -0.283203,0.10742 -0.148926,0.0464 -0.324707,0.0781 -0.17334,0.0342 -0.383301,0.0342 -0.395507,0 -0.720214,-0.10986 -0.322266,-0.1123 -0.561524,-0.34912 -0.234375,-0.23193 -0.366211,-0.58838 -0.131836,-0.35889 -0.131836,-0.83252 0,-0.44922 0.126953,-0.80322 0.126954,-0.35401 0.366211,-0.59815 0.231934,-0.23681 0.559082,-0.36132 0.32959,-0.12452 0.729981,-0.12452 0.292969,0 0.583496,0.0708 0.292969,0.0708 0.649414,0.24903 v 0.57373 h -0.03662 q -0.300293,-0.25147 -0.595703,-0.36621 -0.29541,-0.11475 -0.632324,-0.11475 -0.275879,0 -0.498047,0.0903 -0.219727,0.0879 -0.393067,0.27588 -0.168457,0.18311 -0.263672,0.46387 -0.09277,0.27832 -0.09277,0.64453 0,0.3833 0.102539,0.65918 0.10498,0.27588 0.268555,0.44922 0.170898,0.18066 0.397949,0.26855 0.229492,0.0855 0.483398,0.0855 0.349121,0 0.654297,-0.11963 0.305176,-0.11962 0.571289,-0.35888 h 0.03418 z"
               id="path1644" />
            <path
               d="m 79.677444,134.4352 h -0.483398 v -1.77979 h -1.813965 v 1.77979 h -0.483398 v -3.63526 h 0.483398 v 1.42578 h 1.813965 v -1.42578 h 0.483398 z"
               id="path1646" />
            <path
               d="m 81.935745,134.4352 h -1.435547 v -0.3711 h 0.476075 v -2.89306 h -0.476075 v -0.3711 h 1.435547 v 0.3711 h -0.476074 v 2.89306 h 0.476074 z"
               id="path1648" />
            <path
               d="m 85.136429,131.89857 q 0,0.2417 -0.08545,0.44922 -0.08301,0.20508 -0.234375,0.35645 -0.187989,0.18799 -0.444336,0.2832 -0.256348,0.0928 -0.646973,0.0928 h -0.483398 v 1.35498 h -0.483399 v -3.63526 h 0.986328 q 0.327149,0 0.554199,0.0562 0.227051,0.0537 0.402833,0.1709 0.207519,0.13916 0.319824,0.34668 0.114746,0.20752 0.114746,0.5249 z m -0.50293,0.0122 q 0,-0.18799 -0.06592,-0.32715 -0.06592,-0.13916 -0.200195,-0.22705 -0.117188,-0.0757 -0.268555,-0.10742 -0.148926,-0.0342 -0.378418,-0.0342 h -0.478515 v 1.45264 h 0.407714 q 0.292969,0 0.476075,-0.0513 0.183105,-0.0537 0.297851,-0.16846 0.114746,-0.11719 0.161133,-0.24658 0.04883,-0.1294 0.04883,-0.29053 z"
               id="path1650" />
            <path
               d="m 88.473831,135.16762 h -3.198242 v -0.29297 h 3.198242 z"
               id="path1652" />
            <path
               d="m 91.347366,134.4352 h -2.395019 v -3.63526 h 2.395019 v 0.42969 h -1.911621 v 0.99609 h 1.911621 v 0.42969 h -1.911621 v 1.3501 h 1.911621 z"
               id="path1654" />
            <path
               d="m 94.887405,134.4352 h -0.598144 l -1.723633,-3.25196 v 3.25196 h -0.45166 v -3.63526 h 0.749512 l 1.572265,2.96875 v -2.96875 h 0.45166 z"
               id="path1656" />
          </g>
          <g
             aria-label="GND"
             id="text1097"
             style="font-size:5px;line-height:1.25;-inkscape-font-specification:'sans-serif, Normal';stroke-width:0.264583"
             transform="translate(-0.217286,-2.3794512)">
            <path
               d="m 76.437698,141.39275 q -0.297851,0.13671 -0.651855,0.23925 -0.351563,0.1001 -0.681152,0.1001 -0.424805,0 -0.778809,-0.11719 -0.354004,-0.11718 -0.603027,-0.35156 -0.251465,-0.23681 -0.388184,-0.59082 -0.136719,-0.35644 -0.136719,-0.83252 0,-0.87158 0.507813,-1.37451 0.510254,-0.50537 1.398926,-0.50537 0.310058,0 0.632324,0.0757 0.324707,0.0732 0.698242,0.25147 v 0.57373 h -0.04394 q -0.07568,-0.0586 -0.219727,-0.15381 -0.144043,-0.0952 -0.283203,-0.15869 -0.168457,-0.0757 -0.383301,-0.12451 -0.212402,-0.0513 -0.483398,-0.0513 -0.610352,0 -0.966797,0.39306 -0.354004,0.39063 -0.354004,1.05957 0,0.70557 0.371094,1.09864 0.371093,0.39062 1.010742,0.39062 0.234375,0 0.466308,-0.0464 0.234375,-0.0464 0.410157,-0.11962 v -0.89112 h -0.974121 v -0.4248 h 1.452636 z"
               id="path1659" />
            <path
               d="m 80.055862,141.6613 h -0.598144 l -1.723633,-3.25195 v 3.25195 h -0.45166 v -3.63525 h 0.749512 l 1.572265,2.96875 v -2.96875 h 0.45166 z"
               id="path1661" />
            <path
               d="m 84.093948,139.84734 q 0,0.4956 -0.217285,0.89843 -0.214844,0.40284 -0.57373,0.625 -0.249024,0.15381 -0.556641,0.22217 -0.305176,0.0684 -0.805664,0.0684 h -0.917969 v -3.63525 h 0.908203 q 0.532227,0 0.844727,0.0781 0.314941,0.0757 0.532227,0.20996 0.371093,0.23194 0.578613,0.61768 0.207519,0.38574 0.207519,0.91553 z m -0.505371,-0.007 q 0,-0.42724 -0.148926,-0.72021 -0.148925,-0.29297 -0.444335,-0.46143 -0.214844,-0.12207 -0.456543,-0.16846 -0.2417,-0.0488 -0.578614,-0.0488 h -0.454101 v 2.80517 h 0.454101 q 0.349121,0 0.60791,-0.0513 0.261231,-0.0513 0.478516,-0.19043 0.270996,-0.17334 0.405274,-0.45654 0.136718,-0.2832 0.136718,-0.70801 z"
               id="path1663" />
          </g>
          <g
             aria-label="GND"
             id="text1101"
             style="font-size:5px;line-height:1.25;-inkscape-font-specification:'sans-serif, Normal';stroke-width:0.264583"
             transform="translate(-0.217286,-2.6055712)">
            <path
               d="m 76.437698,148.61887 q -0.297851,0.13671 -0.651855,0.23925 -0.351563,0.1001 -0.681152,0.1001 -0.424805,0 -0.778809,-0.11719 -0.354004,-0.11718 -0.603027,-0.35156 -0.251465,-0.23681 -0.388184,-0.59082 -0.136719,-0.35644 -0.136719,-0.83252 0,-0.87158 0.507813,-1.37451 0.510254,-0.50537 1.398926,-0.50537 0.310058,0 0.632324,0.0757 0.324707,0.0732 0.698242,0.25147 v 0.57373 h -0.04394 q -0.07568,-0.0586 -0.219727,-0.15381 -0.144043,-0.0952 -0.283203,-0.15869 -0.168457,-0.0757 -0.383301,-0.12451 -0.212402,-0.0513 -0.483398,-0.0513 -0.610352,0 -0.966797,0.39306 -0.354004,0.39063 -0.354004,1.05957 0,0.70557 0.371094,1.09864 0.371093,0.39062 1.010742,0.39062 0.234375,0 0.466308,-0.0464 0.234375,-0.0464 0.410157,-0.11962 v -0.89112 h -0.974121 v -0.4248 h 1.452636 z"
               id="path1666" />
            <path
               d="m 80.055862,148.88742 h -0.598144 l -1.723633,-3.25195 v 3.25195 h -0.45166 v -3.63525 h 0.749512 l 1.572265,2.96875 v -2.96875 h 0.45166 z"
               id="path1668" />
            <path
               d="m 84.093948,147.07346 q 0,0.4956 -0.217285,0.89843 -0.214844,0.40284 -0.57373,0.625 -0.249024,0.15381 -0.556641,0.22217 -0.305176,0.0684 -0.805664,0.0684 h -0.917969 v -3.63525 h 0.908203 q 0.532227,0 0.844727,0.0781 0.314941,0.0757 0.532227,0.20996 0.371093,0.23194 0.578613,0.61768 0.207519,0.38574 0.207519,0.91553 z m -0.505371,-0.007 q 0,-0.42724 -0.148926,-0.72021 -0.148925,-0.29297 -0.444335,-0.46143 -0.214844,-0.12207 -0.456543,-0.16846 -0.2417,-0.0488 -0.578614,-0.0488 h -0.454101 v 2.80517 h 0.454101 q 0.349121,0 0.60791,-0.0513 0.261231,-0.0513 0.478516,-0.19043 0.270996,-0.17334 0.405274,-0.45654 0.136718,-0.2832 0.136718,-0.70801 z"
               id="path1670" />
          </g>
          <g
             aria-label="AOUT"
             id="text1105"
             style="font-size:5px;line-height:1.25;-inkscape-font-specification:'sans-serif, Normal';stroke-width:0.264583"
             transform="translate(-0.79374,-2.8292462)">
            <path
               d="m 77.065422,156.11354 h -0.515137 l -0.356445,-1.01318 h -1.572266 l -0.356445,1.01318 h -0.490723 l 1.323243,-3.63525 h 0.644531 z m -1.020508,-1.42822 -0.637207,-1.78467 -0.639648,1.78467 z"
               id="path1673" />
            <path
               d="m 80.327141,152.89577 q 0.222168,0.24414 0.339355,0.59814 0.119629,0.35401 0.119629,0.80322 0,0.44922 -0.12207,0.80567 -0.119629,0.354 -0.336914,0.59082 -0.22461,0.24658 -0.532227,0.37109 -0.305176,0.12451 -0.698242,0.12451 -0.383301,0 -0.698242,-0.12695 -0.3125,-0.12695 -0.532227,-0.36865 -0.219726,-0.2417 -0.339355,-0.59326 -0.117188,-0.35157 -0.117188,-0.80323 0,-0.44433 0.117188,-0.79589 0.117187,-0.35401 0.341797,-0.60547 0.214843,-0.23926 0.532226,-0.36621 0.319824,-0.12696 0.695801,-0.12696 0.390625,0 0.700684,0.1294 0.3125,0.12695 0.529785,0.36377 z m -0.04395,1.40136 q 0,-0.708 -0.317382,-1.0913 -0.317383,-0.38575 -0.8667,-0.38575 -0.554199,0 -0.871582,0.38575 -0.314941,0.3833 -0.314941,1.0913 0,0.71534 0.322266,1.0962 0.322265,0.37841 0.864257,0.37841 0.541993,0 0.861817,-0.37841 0.322265,-0.38086 0.322265,-1.0962 z"
               id="path1675" />
            <path
               d="m 84.289543,154.65358 q 0,0.39551 -0.08789,0.69092 -0.08545,0.29297 -0.283204,0.48828 -0.187988,0.18555 -0.439453,0.271 -0.251465,0.0854 -0.585937,0.0854 -0.341797,0 -0.595703,-0.0903 -0.253907,-0.0903 -0.427246,-0.26611 -0.197754,-0.2002 -0.285645,-0.4834 -0.08545,-0.2832 -0.08545,-0.6958 v -2.17529 h 0.483398 v 2.1997 q 0,0.29541 0.03906,0.46631 0.0415,0.1709 0.136718,0.31006 0.107422,0.15869 0.290528,0.23926 0.185547,0.0806 0.444336,0.0806 0.26123,0 0.444336,-0.0781 0.183105,-0.0806 0.292968,-0.2417 0.09521,-0.13916 0.134278,-0.31738 0.0415,-0.18067 0.0415,-0.44678 v -2.21191 h 0.483398 z"
               id="path1677" />
            <path
               d="M 87.805168,152.90797 H 86.50634 v 3.20557 h -0.483398 v -3.20557 h -1.298829 v -0.42968 h 3.081055 z"
               id="path1679" />
          </g>
        </g>
        <g
           aria-label="AMB82 MINI"
           id="text930"
           style="font-size:10px;line-height:1.25;-inkscape-font-specification:'sans-serif, Normal';stroke-width:0.264583">
          <path
             d="m 91.622757,58.43177 h -1.030273 l -0.712891,-2.026367 h -3.144531 l -0.712891,2.026367 h -0.981445 l 2.646484,-7.270507 h 1.289063 z m -2.041016,-2.856445 -1.274414,-3.569336 -1.279297,3.569336 z"
             id="path1558" />
          <path
             d="m 99.200882,58.43177 h -0.966797 v -6.264648 l -2.021484,4.262695 h -0.576172 l -2.006836,-4.262695 v 6.264648 h -0.90332 v -7.270507 h 1.318359 l 1.938477,4.047851 1.875,-4.047851 h 1.342773 z"
             id="path1560" />
          <path
             d="m 106.63741,56.195442 q 0,0.541992 -0.20508,0.957031 -0.20508,0.41504 -0.55176,0.683594 -0.41016,0.322266 -0.90332,0.458985 -0.48828,0.136718 -1.24512,0.136718 h -2.57812 v -7.270507 h 2.15332 q 0.7959,0 1.1914,0.05859 0.39551,0.05859 0.75684,0.244141 0.40039,0.209961 0.58105,0.541992 0.18067,0.327149 0.18067,0.786133 0,0.517578 -0.26367,0.883789 -0.26368,0.361328 -0.70313,0.581055 v 0.03906 q 0.73731,0.151367 1.16211,0.649414 0.42481,0.493164 0.42481,1.25 z m -1.62598,-3.276367 q 0,-0.263672 -0.0879,-0.444336 -0.0879,-0.180664 -0.2832,-0.292969 -0.2295,-0.131836 -0.55665,-0.161132 -0.32714,-0.03418 -0.81054,-0.03418 h -1.15235 v 2.099609 h 1.25 q 0.45411,0 0.72266,-0.04395 0.26855,-0.04883 0.49805,-0.195313 0.22949,-0.146484 0.32226,-0.375976 0.0977,-0.234375 0.0977,-0.551758 z m 0.62012,3.31543 q 0,-0.439453 -0.13184,-0.698242 -0.13184,-0.25879 -0.47852,-0.439454 -0.23437,-0.12207 -0.57128,-0.15625 -0.33204,-0.03906 -0.81055,-0.03906 h -1.51856 v 2.705078 h 1.2793 q 0.63477,0 1.04004,-0.06348 0.40527,-0.06836 0.66406,-0.24414 0.27344,-0.19043 0.40039,-0.43457 0.12696,-0.244141 0.12696,-0.629882 z"
             id="path1562" />
          <path
             d="m 112.79463,56.405403 q 0,0.942383 -0.7373,1.567383 -0.73242,0.625 -1.84571,0.625 -1.18164,0 -1.88476,-0.610352 -0.69824,-0.610351 -0.69824,-1.5625 0,-0.605468 0.35156,-1.09375 0.35156,-0.493164 0.99121,-0.78125 v -0.0293 q -0.58594,-0.3125 -0.86914,-0.683594 -0.27832,-0.371094 -0.27832,-0.927735 0,-0.820312 0.67383,-1.367187 0.67383,-0.546875 1.71386,-0.546875 1.08887,0 1.73829,0.522461 0.64941,0.522461 0.64941,1.328125 0,0.493164 -0.30762,0.97168 -0.30761,0.473632 -0.90332,0.742187 v 0.0293 q 0.6836,0.292969 1.04492,0.722656 0.36133,0.429688 0.36133,1.093751 z m -1.15722,-3.549805 q 0,-0.52246 -0.40528,-0.830078 -0.40039,-0.3125 -1.02539,-0.3125 -0.61523,0 -1.01074,0.292969 -0.39063,0.292969 -0.39063,0.791016 0,0.351562 0.19532,0.610351 0.20019,0.253907 0.60058,0.454102 0.18067,0.08789 0.51758,0.229492 0.3418,0.141602 0.66406,0.234375 0.4834,-0.322266 0.66895,-0.668945 0.18555,-0.34668 0.18555,-0.800782 z m 0.15136,3.642579 q 0,-0.449219 -0.20019,-0.717774 -0.19532,-0.273437 -0.77149,-0.546875 -0.22949,-0.107422 -0.50293,-0.200195 -0.27343,-0.09277 -0.72754,-0.258789 -0.43945,0.239258 -0.708,0.649414 -0.26368,0.410156 -0.26368,0.927734 0,0.65918 0.45411,1.088867 0.4541,0.429688 1.15234,0.429688 0.71289,0 1.1377,-0.366211 0.42968,-0.366211 0.42968,-1.005859 z"
             id="path1564" />
          <path
             d="m 119.09834,58.43177 h -4.92187 v -1.020507 q 0.51269,-0.439454 1.02539,-0.878907 0.51758,-0.439453 0.96191,-0.874023 0.9375,-0.908203 1.28418,-1.44043 0.34668,-0.537109 0.34668,-1.157226 0,-0.566407 -0.37597,-0.883789 -0.3711,-0.322266 -1.04004,-0.322266 -0.44434,0 -0.96192,0.15625 -0.51758,0.15625 -1.01074,0.478516 h -0.0488 v -1.025391 q 0.34668,-0.170899 0.92285,-0.3125 0.58106,-0.141602 1.12305,-0.141602 1.11816,0 1.75293,0.541993 0.63477,0.537109 0.63477,1.45996 0,0.41504 -0.10743,0.776368 -0.10254,0.356445 -0.30761,0.678711 -0.19043,0.302734 -0.44922,0.595703 -0.25391,0.292968 -0.62012,0.649414 -0.52246,0.512695 -1.0791,0.996094 -0.55664,0.478515 -1.04004,0.888671 h 3.91113 z"
             id="path1566" />
          <path
             d="m 130.71455,58.43177 h -0.96679 v -6.264648 l -2.02149,4.262695 h -0.57617 l -2.00684,-4.262695 v 6.264648 h -0.90332 v -7.270507 h 1.31836 l 1.93848,4.047851 1.875,-4.047851 h 1.34277 z"
             id="path1568" />
          <path
             d="m 135.23116,58.43177 h -2.8711 v -0.742187 h 0.95215 V 51.90345 h -0.95215 v -0.742187 h 2.8711 v 0.742187 h -0.95215 v 5.786133 h 0.95215 z"
             id="path1570" />
          <path
             d="m 142.42354,58.43177 h -1.19629 l -3.44727,-6.503906 v 6.503906 h -0.90332 v -7.270507 h 1.49903 l 3.14453,5.9375 v -5.9375 h 0.90332 z"
             id="path1572" />
          <path
             d="m 146.92061,58.43177 h -2.8711 v -0.742187 h 0.95215 V 51.90345 h -0.95215 v -0.742187 h 2.8711 v 0.742187 h -0.95215 v 5.786133 h 0.95215 z"
             id="path1574" />
        </g>
      </g>
    </g>
  </g>
</svg>
